{"glyphs":{"0":{"ha":635,"x_min":10,"x_max":625,"o":"m 247 307 q 263 146 247 221 q 308 53 278 71 q 388 361 388 81 q 325 628 388 592 q 247 307 247 600 m 10 321 q 147 597 44 492 q 340 701 250 701 q 519 595 431 701 q 625 358 608 489 q 487 83 590 188 q 293 -21 383 -21 q 115 85 203 -21 q 10 321 26 190 z "},"1":{"ha":476,"x_min":19,"x_max":451,"o":"m 419 -18 q 215 0 344 0 q 24 -12 86 0 l 19 13 q 114 50 58 35 q 139 517 139 186 q 133 636 139 586 q 44 674 89 649 l 49 697 q 256 681 128 681 q 444 694 383 681 l 451 674 q 383 607 406 651 q 352 473 361 563 q 343 251 343 383 q 351 58 343 119 q 428 7 385 25 l 419 -18 z "},"2":{"ha":544,"x_min":-29,"x_max":515,"o":"m 150 246 q 240 369 200 299 q 279 513 279 439 q 228 586 279 586 q 188 579 206 586 q 175 520 175 554 q 194 469 175 486 l 192 458 q 68 378 114 424 q 33 419 33 378 q 110 591 33 515 q 293 701 186 667 q 453 646 392 701 q 515 494 515 590 q 424 385 490 444 q 279 266 358 326 q 168 171 200 206 q 315 160 225 160 q 438 178 406 160 q 493 282 465 243 l 515 271 q 483 105 483 192 q 503 -10 483 18 l 490 -29 q 129 11 308 11 q -15 -18 28 11 l -29 -4 q 150 246 4 89 z "},"3":{"ha":539,"x_min":-44,"x_max":529,"o":"m 331 532 q 228 536 293 536 q 132 518 164 536 q 76 428 107 468 l 54 439 q 86 593 86 519 q 68 696 86 667 l 83 713 q 376 678 160 678 q 515 688 457 678 l 529 665 q 308 392 457 507 l 308 386 q 515 206 515 386 q 459 58 515 135 q 337 -69 403 -18 q 199 -160 271 -119 q 67 -119 136 -154 q -32 -44 -1 -85 l -44 -28 q 104 146 60 65 l 124 135 q 118 85 118 117 q 153 8 118 54 q 229 -60 189 -39 q 281 36 261 -25 q 300 150 300 97 q 192 285 300 285 q 146 278 167 285 l 136 306 q 331 532 265 403 z "},"4":{"ha":653,"x_min":-29,"x_max":624,"o":"m 494 76 q 503 -81 494 -21 q 581 -126 539 -111 l 574 -156 q 373 -139 493 -139 q 176 -157 253 -139 l 169 -129 q 265 -89 203 -110 q 283 76 279 -18 l -24 76 l -29 96 q 317 667 122 283 q 539 701 460 675 l 550 696 q 496 182 503 546 q 617 207 558 182 l 624 199 q 600 68 614 175 q 494 76 539 76 m 308 531 q 156 190 244 351 q 296 183 208 183 l 318 531 l 308 531 z "},"5":{"ha":525,"x_min":-44,"x_max":515,"o":"m 151 392 q 304 407 213 407 q 456 357 396 407 q 515 206 515 307 q 459 58 515 135 q 337 -69 403 -18 q 199 -160 271 -119 q 67 -119 136 -154 q -32 -44 -1 -85 l -44 -28 q 104 146 60 65 l 124 135 q 118 85 118 117 q 153 8 118 54 q 229 -60 189 -39 q 281 36 261 -25 q 300 157 300 97 q 273 247 300 217 q 191 278 246 278 q 79 261 136 278 l 61 272 l 81 529 q 81 553 81 542 q 63 665 81 617 l 76 688 q 194 678 118 678 q 432 713 356 678 l 447 696 q 429 600 429 667 q 461 453 429 533 l 439 442 q 390 518 417 465 q 281 536 358 536 q 158 529 203 536 l 133 376 l 139 375 l 151 392 z "},"6":{"ha":597,"x_min":28,"x_max":588,"o":"m 244 275 q 272 92 244 121 q 310 76 285 76 q 350 92 335 76 q 361 197 361 143 q 360 274 361 251 q 356 326 360 296 q 343 372 351 357 q 278 411 322 411 l 278 424 q 371 538 333 485 q 542 458 497 538 q 588 224 588 378 q 447 76 531 142 q 272 -21 363 10 q 28 251 28 -21 q 173 605 28 446 q 528 846 318 764 l 547 817 q 244 275 244 638 z "},"7":{"ha":501,"x_min":10,"x_max":521,"o":"m 374 528 q 228 536 307 536 q 118 518 150 536 q 63 428 93 468 l 40 439 q 72 593 72 519 q 54 696 72 667 l 69 713 q 349 678 146 678 q 506 690 450 678 l 521 676 q 301 -92 306 279 q 383 -131 351 -110 l 376 -158 q 198 -139 297 -139 q 18 -156 99 -139 l 10 -128 q 88 -81 50 -114 q 177 213 110 74 q 374 528 244 353 z "},"8":{"ha":506,"x_min":19,"x_max":486,"o":"m 465 693 q 349 465 465 575 q 417 401 392 428 q 464 328 442 375 q 486 231 486 282 q 385 78 454 136 q 208 -21 315 19 q 19 161 19 -21 q 62 295 19 229 q 167 401 104 361 q 82 514 113 460 q 51 635 51 568 q 174 749 99 699 q 319 813 249 800 q 429 786 393 813 q 465 693 465 760 m 304 101 q 315 176 315 131 q 288 263 315 222 q 204 361 260 304 q 165 200 165 307 q 183 117 165 151 q 241 82 201 82 q 304 101 281 82 m 222 661 q 303 507 222 588 q 321 642 321 574 q 268 711 321 711 q 232 704 249 711 q 222 661 222 689 z "},"9":{"ha":597,"x_min":10,"x_max":569,"o":"m 353 406 q 325 589 353 560 q 288 604 313 604 q 247 589 263 604 q 236 483 236 538 q 237 407 236 429 q 242 354 238 385 q 254 308 246 324 q 319 269 275 269 l 319 257 q 226 143 264 196 q 55 223 100 143 q 10 457 10 303 q 151 605 67 539 q 325 701 235 671 q 569 429 569 701 q 424 76 569 235 q 69 -165 279 -83 l 50 -136 q 353 406 353 43 z "}," ":{"ha":229,"x_min":0,"x_max":0,"o":""},"!":{"ha":360,"x_min":29,"x_max":389,"o":"m 276 129 q 213 49 256 96 q 139 -21 171 1 q 78 46 110 0 q 29 129 46 92 q 87 194 44 158 q 164 249 129 231 q 276 129 224 211 m 313 988 q 324 988 318 988 q 389 892 358 954 q 197 338 254 599 l 133 331 l 156 946 q 313 988 249 988 z "},"\"":{"ha":464,"x_min":67,"x_max":464,"o":"m 92 906 q 161 926 115 917 q 220 936 207 936 q 236 936 233 936 l 258 913 q 119 522 174 754 l 67 515 l 92 906 m 297 906 q 367 926 321 917 q 426 936 413 936 q 442 936 439 936 l 464 913 q 325 522 379 754 l 272 515 l 297 906 z "},"#":{"ha":794,"x_min":51,"x_max":747,"o":"m 574 517 q 630 517 593 517 q 739 518 667 517 l 747 511 l 707 429 l 558 433 l 526 263 q 580 263 544 263 q 686 264 615 263 l 694 257 l 654 175 l 511 179 l 453 -133 l 446 -133 q 369 -99 397 -122 q 433 182 415 83 l 303 185 l 243 -133 l 236 -133 q 160 -99 188 -122 q 225 186 208 104 l 63 190 l 51 200 l 92 286 l 154 281 q 240 274 208 275 l 272 440 l 115 444 l 104 454 l 144 540 l 207 535 q 289 528 258 529 l 343 815 q 426 825 394 815 l 432 821 q 365 524 396 686 q 497 518 408 521 l 553 815 q 636 825 604 815 l 642 821 q 575 522 606 685 l 574 517 m 318 269 q 449 264 360 267 l 482 436 l 350 439 l 318 269 z "},"$":{"ha":538,"x_min":6,"x_max":536,"o":"m 168 233 q 225 110 168 169 l 240 301 q 122 378 160 350 q 54 482 54 426 q 138 604 54 538 q 314 711 221 671 l 322 817 q 367 825 354 821 l 372 821 q 357 715 364 781 q 457 700 410 700 q 522 713 504 700 l 536 697 q 444 539 472 622 l 431 535 l 394 561 l 346 593 l 338 482 q 483 369 461 408 q 496 326 496 349 q 424 156 496 247 q 260 -3 351 64 l 253 -126 l 246 -128 q 203 -107 214 -118 l 213 -18 q 101 24 156 -8 q 18 94 46 57 l 6 111 q 154 285 110 204 l 174 274 q 168 233 168 256 m 335 218 q 281 276 335 239 l 265 79 q 313 144 292 103 q 335 218 335 186 m 268 626 q 232 573 232 603 q 297 504 232 543 l 307 614 q 268 626 279 625 z "},"%":{"ha":1054,"x_min":64,"x_max":990,"o":"m 289 792 l 294 792 q 442 770 324 790 q 625 750 560 750 q 719 760 690 750 q 771 803 747 769 l 781 817 q 893 833 850 819 l 897 829 q 671 524 774 668 l 201 -144 l 194 -144 q 126 -90 150 -129 q 183 -19 144 -68 q 311 142 288 107 l 581 522 q 641 608 588 533 q 722 724 694 682 l 717 725 q 617 683 672 683 q 401 742 563 683 l 397 738 q 485 567 472 663 q 390 384 461 453 q 258 315 319 315 q 135 385 196 315 q 64 542 74 456 q 158 722 88 653 q 289 792 228 792 m 663 386 q 698 421 663 386 q 794 456 733 456 q 917 386 856 456 q 990 231 979 317 q 896 48 967 117 q 763 -21 825 -21 q 640 49 701 -21 q 569 206 579 119 q 663 386 593 317 m 229 533 q 267 372 229 392 q 318 551 318 388 q 281 735 318 715 q 229 533 229 719 m 735 197 q 772 36 735 56 q 824 215 824 51 q 786 399 824 379 q 735 197 735 383 z "},"&":{"ha":947,"x_min":28,"x_max":1100,"o":"m 790 532 q 975 575 946 532 q 978 597 978 586 q 958 671 978 642 l 958 682 q 1053 800 1017 731 q 1088 779 1076 800 q 1100 731 1100 758 q 1047 553 1100 626 q 890 414 993 479 q 822 428 857 425 q 710 151 814 278 q 458 -21 606 24 q 139 86 250 -21 q 28 397 28 193 q 128 656 28 535 q 367 813 229 776 l 378 811 q 398 758 386 792 q 417 703 410 724 q 469 614 439 647 q 535 733 507 661 q 563 864 563 806 q 560 906 563 872 l 565 913 q 744 925 686 913 q 673 732 715 815 q 563 578 631 649 q 428 456 496 508 q 247 332 360 404 q 468 92 290 92 q 561 111 522 92 q 615 360 615 183 q 611 428 615 397 q 510 385 549 424 q 507 363 507 374 q 526 289 507 318 l 526 278 q 432 160 468 229 q 397 181 408 160 q 385 229 385 201 q 453 419 385 332 q 625 549 521 506 q 790 532 708 532 m 279 721 q 246 630 256 708 q 236 485 236 551 q 240 386 236 419 q 329 460 307 438 q 279 721 296 589 z "},"'":{"ha":258,"x_min":67,"x_max":258,"o":"m 92 906 q 161 926 115 917 q 220 936 207 936 q 236 936 233 936 l 258 913 q 119 522 174 754 l 67 515 l 92 906 z "},"(":{"ha":411,"x_min":57,"x_max":421,"o":"m 421 965 q 183 276 183 669 q 216 -1 183 147 q 335 -278 249 -149 l 301 -299 q 117 -22 178 -186 q 57 297 57 142 q 153 696 57 518 q 392 988 250 874 l 421 965 z "},")":{"ha":411,"x_min":-10,"x_max":354,"o":"m -10 -276 q 228 413 228 19 q 195 690 228 542 q 76 967 163 838 l 110 988 q 294 711 233 875 q 354 392 354 547 q 258 -7 354 171 q 19 -299 161 -185 l -10 -276 z "},"*":{"ha":515,"x_min":60,"x_max":453,"o":"m 293 940 l 339 949 l 342 946 q 282 800 293 872 q 385 918 344 846 l 389 918 q 400 872 394 908 q 435 876 422 876 q 453 874 447 876 q 421 826 453 863 q 429 817 422 824 q 449 793 447 800 l 447 790 q 436 790 442 790 q 299 760 372 790 q 432 729 363 729 q 443 729 438 729 l 444 726 q 413 693 442 722 q 439 646 439 660 q 419 642 433 642 q 385 646 406 642 q 368 604 376 621 l 364 604 q 276 719 335 669 q 315 572 278 643 l 314 569 l 271 581 q 240 532 251 538 q 217 582 228 539 l 174 572 l 171 575 q 231 719 218 651 q 128 603 174 678 l 124 603 l 114 647 q 78 643 92 643 q 60 646 65 643 q 90 696 61 658 l 64 729 l 65 732 q 79 732 72 732 q 214 760 151 732 q 82 789 149 789 q 71 789 76 789 l 71 792 q 100 825 75 800 q 74 874 74 864 q 92 876 79 876 q 129 872 106 876 q 144 917 143 915 l 149 917 q 236 800 182 844 q 197 946 232 879 l 200 949 q 243 940 210 949 q 272 988 263 982 q 293 940 282 982 z "},"+":{"ha":800,"x_min":79,"x_max":722,"o":"m 444 294 q 457 -14 444 118 l 360 -26 l 346 -17 l 346 294 l 90 294 l 79 304 l 92 403 q 346 393 261 394 l 346 675 l 444 688 l 451 679 q 444 393 444 494 l 444 392 q 578 390 496 390 q 714 394 660 390 l 722 386 l 710 294 l 444 294 z "},",":{"ha":306,"x_min":-7,"x_max":276,"o":"m 276 129 q 184 -71 260 29 q 14 -235 108 -171 l -7 -211 q 117 -1 94 -104 q 29 129 61 54 q 87 194 44 158 q 164 249 129 231 q 276 129 224 211 z "},"-":{"ha":417,"x_min":33,"x_max":383,"o":"m 106 414 q 372 428 256 414 l 383 421 l 375 335 l 46 314 l 33 322 l 42 414 l 106 414 z "},".":{"ha":306,"x_min":29,"x_max":276,"o":"m 276 129 q 213 49 256 96 q 139 -21 171 1 q 78 46 110 0 q 29 129 46 92 q 87 194 44 158 q 164 249 129 231 q 276 129 224 211 z "},"/":{"ha":567,"x_min":10,"x_max":557,"o":"m 89 -65 l 79 -65 q 10 -10 42 -50 q 129 238 76 118 l 333 688 q 447 965 397 829 q 550 981 500 968 l 557 975 q 450 754 496 854 l 89 -65 z "},":":{"ha":322,"x_min":29,"x_max":293,"o":"m 293 582 q 230 501 272 549 q 156 432 188 454 q 94 499 126 453 q 46 582 63 544 q 103 647 61 611 q 181 701 146 683 q 293 582 240 664 m 276 129 q 213 49 256 96 q 139 -21 171 1 q 78 46 110 0 q 29 129 46 92 q 87 194 44 158 q 164 249 129 231 q 276 129 224 211 z "},";":{"ha":322,"x_min":-7,"x_max":293,"o":"m 276 129 q 184 -71 260 29 q 14 -235 108 -171 l -7 -211 q 117 -1 94 -104 q 29 129 61 54 q 87 194 44 158 q 164 249 129 231 q 276 129 224 211 m 293 582 q 230 501 272 549 q 156 432 188 454 q 94 499 126 453 q 46 582 63 544 q 103 647 61 611 q 181 701 146 683 q 293 582 240 664 z "},"<":{"ha":800,"x_min":76,"x_max":724,"o":"m 688 63 q 76 308 367 222 l 96 397 q 351 488 174 421 q 690 638 529 556 l 724 546 l 717 532 l 232 353 l 232 347 l 717 169 l 724 156 l 688 63 z "},"=":{"ha":800,"x_min":78,"x_max":721,"o":"m 90 289 q 492 276 325 276 q 713 281 658 276 l 721 272 l 708 188 l 89 188 l 78 197 l 90 289 m 90 510 q 492 497 325 497 q 713 501 658 497 l 721 493 l 708 408 l 89 408 l 78 418 l 90 510 z "},">":{"ha":800,"x_min":76,"x_max":724,"o":"m 724 308 q 113 63 433 222 l 76 156 l 83 169 l 568 347 l 568 353 l 83 532 l 76 546 l 110 638 q 449 488 271 556 q 704 397 626 421 l 724 308 z "},"?":{"ha":438,"x_min":8,"x_max":490,"o":"m 126 569 q 217 676 181 613 q 254 806 254 740 q 203 872 254 872 q 163 865 181 872 q 150 806 150 840 q 169 756 150 772 l 167 744 q 43 664 89 710 q 8 706 8 664 q 85 877 8 801 q 268 988 161 953 q 428 932 367 988 q 490 781 490 876 q 447 732 464 747 q 421 707 431 717 q 394 683 411 697 q 367 663 376 669 q 338 642 358 656 l 310 622 q 280 600 303 617 q 251 581 257 583 q 224 459 238 540 q 206 361 210 378 l 119 347 l 126 569 m 276 129 q 213 49 256 96 q 139 -21 171 1 q 78 46 110 0 q 29 129 46 92 q 89 203 46 160 q 164 263 132 246 q 276 129 210 235 z "},"@":{"ha":1185,"x_min":42,"x_max":1143,"o":"m 292 221 q 388 504 292 375 q 635 701 483 633 q 817 653 715 701 q 875 746 851 715 l 897 739 q 850 347 850 615 q 867 81 850 193 q 992 278 949 153 q 1036 521 1036 403 q 939 781 1036 696 q 675 867 842 867 q 411 814 508 867 q 222 528 290 708 q 153 180 153 349 q 242 -84 153 11 q 490 -179 332 -179 q 661 -147 581 -179 l 669 -167 q 474 -264 547 -247 q 155 -161 268 -264 q 42 142 42 -58 q 205 681 42 458 q 663 951 368 904 q 1011 856 879 951 q 1143 565 1143 761 q 1040 202 1143 368 q 764 -21 938 36 q 658 221 658 -4 l 681 333 l 657 336 q 595 121 632 213 q 489 -21 558 29 q 344 49 397 -21 q 292 221 292 119 m 547 586 q 507 282 507 422 q 531 122 507 142 q 614 326 579 188 q 649 558 649 465 q 592 596 622 596 q 547 586 561 596 z "},"A":{"ha":782,"x_min":-29,"x_max":704,"o":"m 442 296 q 382 304 413 304 q 326 304 351 304 q 267 296 301 304 q 238 113 238 178 q 247 -1 238 47 q -12 -21 99 -1 l -29 -10 l 265 854 q 175 893 224 868 l 181 919 q 447 904 288 904 q 696 919 607 904 l 704 913 q 671 638 685 831 q 657 263 657 446 q 672 0 657 81 q 413 -21 486 -6 l 404 -14 q 442 296 429 96 m 286 401 q 365 392 311 392 q 446 403 419 392 q 453 653 453 553 q 447 821 453 753 q 422 825 440 825 q 396 821 404 825 q 354 699 371 783 l 286 401 z "},"B":{"ha":767,"x_min":39,"x_max":738,"o":"m 40 904 l 463 919 q 692 756 692 919 q 643 615 692 676 q 514 518 594 554 l 514 513 q 678 468 618 513 q 738 329 738 424 q 699 210 738 268 q 599 108 661 151 q 336 -21 476 22 l 292 -10 q 149 15 196 15 q 74 10 101 15 l 65 28 q 104 138 94 58 q 129 576 129 371 q 118 856 129 781 q 39 879 71 864 l 40 904 m 432 828 q 394 839 418 839 q 351 831 369 839 q 332 267 332 585 q 335 119 332 236 q 409 101 365 101 q 481 124 453 101 q 503 287 503 190 q 476 431 503 383 q 361 479 450 479 l 367 531 q 422 543 401 533 q 460 714 460 610 q 432 828 460 808 z "},"C":{"ha":647,"x_min":42,"x_max":667,"o":"m 42 325 q 429 925 42 703 q 558 904 486 904 q 657 913 631 904 l 667 893 q 608 750 629 843 q 586 583 586 657 l 563 583 q 536 689 549 619 l 507 711 q 350 792 400 792 q 294 594 315 711 q 274 403 274 478 q 281 282 274 328 q 303 192 288 236 q 352 124 319 149 q 431 99 385 99 q 468 272 468 165 q 464 315 468 297 l 474 322 q 647 338 564 324 q 549 130 626 231 q 375 -21 472 29 q 131 73 219 -21 q 42 325 42 167 z "},"D":{"ha":828,"x_min":39,"x_max":786,"o":"m 40 904 l 421 919 q 700 827 614 919 q 786 534 786 735 q 663 183 786 333 q 338 -21 539 33 l 294 -10 q 150 15 199 15 q 74 10 101 15 l 65 28 q 104 138 94 58 q 129 576 129 371 q 118 856 129 781 q 39 879 71 864 l 40 904 m 340 114 q 414 101 361 101 q 500 131 467 101 q 543 285 528 189 q 558 445 558 382 q 558 533 558 508 q 554 602 557 557 q 547 675 551 647 q 531 738 542 703 q 504 792 519 772 q 465 825 489 811 q 410 839 440 839 q 358 831 379 839 q 333 267 333 569 q 340 114 333 183 z "},"E":{"ha":651,"x_min":29,"x_max":653,"o":"m 369 788 q 329 783 350 788 q 321 728 321 763 q 363 573 321 621 q 510 515 406 525 l 501 463 q 326 410 389 463 q 263 250 263 357 q 295 141 263 181 q 388 101 328 101 q 478 124 449 101 q 490 194 490 157 q 468 260 490 232 l 471 271 q 589 342 546 297 q 631 278 631 335 q 546 97 631 181 q 354 -21 461 13 q 122 47 214 -21 q 29 224 29 115 q 109 403 29 332 q 304 486 189 474 l 304 492 q 158 546 218 503 q 99 661 99 589 q 258 824 168 751 q 442 925 349 897 q 653 875 568 925 q 572 679 593 786 l 560 679 q 466 759 510 731 q 369 788 422 788 z "},"F":{"ha":668,"x_min":43,"x_max":688,"o":"m 49 918 q 361 904 164 904 q 679 925 558 904 l 688 910 q 622 690 629 843 l 599 690 q 576 796 586 729 q 429 825 513 825 q 368 818 403 825 q 340 532 351 704 q 433 526 367 526 q 569 550 499 526 l 576 542 q 556 425 568 518 q 405 439 458 439 q 336 436 351 439 q 332 218 332 342 q 353 0 332 94 q 93 -21 168 -6 l 85 -14 q 119 264 104 68 q 133 616 133 460 q 126 854 133 772 q 43 890 68 874 l 49 918 z "},"G":{"ha":756,"x_min":42,"x_max":694,"o":"m 42 325 q 429 925 42 703 q 572 904 486 904 q 685 913 658 904 l 694 893 q 635 750 657 843 q 614 583 614 657 l 590 583 q 564 689 576 619 l 535 711 q 350 792 428 792 q 294 594 315 711 q 274 403 274 478 q 281 282 274 328 q 303 192 288 236 q 352 124 319 149 q 431 99 385 99 q 472 131 449 107 l 475 251 q 467 344 475 299 q 368 381 422 356 l 371 410 q 469 401 422 401 q 671 446 579 401 l 685 436 q 664 356 668 400 q 638 -68 640 157 q 456 -212 571 -146 q 249 -278 340 -278 q 158 -224 158 -278 q 276 -119 239 -183 l 288 -119 q 371 -160 328 -160 q 429 -151 414 -160 q 471 46 467 -86 q 375 -21 425 6 q 131 73 219 -21 q 42 325 42 167 z "},"H":{"ha":911,"x_min":43,"x_max":840,"o":"m 336 438 q 328 228 328 361 q 349 0 328 94 q 89 -21 164 -6 l 81 -14 q 115 264 100 68 q 129 617 129 460 q 122 856 129 774 q 43 879 75 864 l 44 904 q 374 922 254 904 l 382 915 q 340 549 356 799 q 466 535 400 535 q 586 547 532 535 q 589 646 589 617 q 572 901 589 828 q 832 922 757 907 l 840 915 q 805 621 818 815 q 792 249 792 426 q 807 0 792 71 q 547 -21 629 -6 l 539 -14 q 583 438 574 142 q 460 447 525 447 q 336 438 394 447 z "},"I":{"ha":454,"x_min":43,"x_max":382,"o":"m 382 915 q 344 629 361 831 q 328 261 328 428 q 349 0 328 94 q 89 -21 164 -6 l 81 -14 q 115 264 100 68 q 129 617 129 460 q 122 856 129 774 q 43 879 75 864 l 44 904 q 374 922 254 904 l 382 915 z "},"J":{"ha":451,"x_min":-62,"x_max":379,"o":"m 379 915 q 341 615 357 813 q 325 272 325 418 q 353 18 325 125 q 174 -147 281 -68 q -46 -279 67 -226 l -62 -257 q 65 -58 29 -169 q 126 635 126 132 q 119 856 126 774 q 40 879 71 864 l 42 904 q 371 922 251 904 l 379 915 z "},"K":{"ha":807,"x_min":43,"x_max":817,"o":"m 525 856 q 522 897 525 864 l 532 904 q 796 917 692 904 q 689 713 760 814 q 531 535 618 611 q 817 0 697 161 q 547 -21 668 -3 l 538 -18 q 378 424 488 218 l 329 388 q 328 219 328 343 q 349 0 328 94 q 89 -21 164 -6 l 81 -14 q 115 264 100 68 q 129 617 129 460 q 122 856 129 774 q 43 879 75 864 l 44 904 q 374 922 254 904 l 382 915 q 332 465 349 776 l 419 567 q 525 856 525 686 z "},"L":{"ha":593,"x_min":43,"x_max":603,"o":"m 382 915 q 344 635 361 829 q 328 305 328 440 q 339 92 328 169 q 449 86 375 86 q 596 113 524 86 l 603 104 q 579 -18 583 44 q 332 0 475 0 q 89 -21 189 0 l 81 -14 q 115 264 100 68 q 129 617 129 460 q 122 856 129 774 q 43 879 75 864 l 44 904 q 374 922 254 904 l 382 915 z "},"M":{"ha":1029,"x_min":1,"x_max":942,"o":"m 440 853 q 488 538 440 754 l 517 401 l 526 404 q 525 447 525 419 q 536 517 525 475 l 626 828 q 635 872 635 854 q 631 899 635 890 l 635 908 q 764 904 661 904 q 932 924 867 904 l 942 917 q 911 439 911 756 q 940 0 911 122 q 689 -21 728 -12 l 679 -14 q 711 450 711 157 q 696 699 711 568 l 690 699 q 575 271 588 381 q 571 169 571 226 q 514 154 558 165 q 381 110 406 126 l 364 121 q 367 167 367 151 q 269 689 367 322 l 264 688 q 200 0 203 321 q 10 -19 78 -3 l 1 -12 q 109 419 47 125 q 183 856 171 713 q 106 879 138 864 l 107 904 q 442 922 322 904 l 449 915 q 440 853 440 886 z "},"N":{"ha":888,"x_min":36,"x_max":813,"o":"m 813 918 q 778 648 793 833 q 763 292 763 463 q 783 0 763 122 q 714 -4 775 -1 q 525 -18 543 -12 l 515 -14 q 292 565 443 236 q 232 674 257 640 l 226 671 q 239 239 226 425 q 263 0 251 53 q 90 -21 146 -7 l 82 -14 q 115 262 101 68 q 129 607 129 456 q 115 856 129 758 q 36 879 67 864 l 38 904 q 401 922 282 904 q 488 621 425 797 q 617 332 551 444 l 664 249 l 668 250 q 656 673 668 496 q 632 904 643 850 q 804 925 750 911 l 813 918 z "},"O":{"ha":817,"x_min":42,"x_max":775,"o":"m 543 550 q 417 808 543 808 q 347 793 374 808 q 274 354 274 606 q 305 170 274 246 q 400 94 336 94 q 468 110 442 94 q 524 313 506 185 q 543 550 543 442 m 42 331 q 156 690 42 524 q 450 925 269 857 q 775 574 775 925 q 658 211 775 385 q 368 -21 542 38 q 128 75 214 -21 q 42 331 42 171 z "},"P":{"ha":747,"x_min":43,"x_max":746,"o":"m 44 904 l 450 919 q 724 817 668 919 q 746 714 746 775 q 633 499 746 574 q 361 424 521 424 l 365 475 q 511 672 511 475 q 417 839 511 839 q 356 831 385 839 q 328 257 328 636 q 349 0 328 94 q 89 -21 164 -6 l 81 -14 q 115 264 100 68 q 129 617 129 460 q 122 856 129 774 q 43 879 75 864 l 44 904 z "},"Q":{"ha":817,"x_min":42,"x_max":1006,"o":"m 42 331 q 156 690 42 524 q 450 925 269 857 q 775 574 775 925 q 674 235 775 399 q 417 -1 572 71 q 585 -96 456 -14 q 782 -178 715 -178 q 824 -145 810 -178 q 838 -74 838 -112 l 843 -64 q 989 -22 917 -60 q 1006 -53 1006 -35 q 915 -167 1006 -110 q 718 -258 825 -225 q 546 -292 611 -292 q 447 -205 486 -237 q 342 -139 407 -172 q 217 -106 276 -106 q 115 -139 158 -106 l 90 -114 q 179 -49 125 -78 q 282 -12 233 -21 q 104 103 167 13 q 42 331 42 194 m 543 550 q 417 808 543 808 q 347 793 374 808 q 274 354 274 606 q 305 170 274 246 q 400 94 336 94 q 468 110 442 94 q 524 313 506 185 q 543 550 543 442 z "},"R":{"ha":821,"x_min":43,"x_max":840,"o":"m 44 904 l 450 919 q 724 817 668 919 q 746 714 746 775 q 572 468 746 550 q 840 0 731 147 q 571 -21 692 -3 l 561 -18 q 498 181 546 54 q 390 424 450 308 l 356 424 l 360 475 q 471 526 431 475 q 511 672 511 576 q 417 839 511 839 q 356 831 385 839 q 328 257 328 636 q 349 0 328 94 q 89 -21 164 -6 l 81 -14 q 115 264 100 68 q 129 617 129 460 q 122 856 129 774 q 43 879 75 864 l 44 904 z "},"S":{"ha":642,"x_min":1,"x_max":617,"o":"m 257 801 q 242 747 242 786 q 295 665 242 707 q 412 596 349 624 q 528 526 475 568 q 582 438 582 483 q 482 194 582 332 q 275 -21 382 56 q 133 18 200 -21 q 25 122 67 57 l 1 160 q 158 367 93 240 l 179 358 q 171 285 171 331 q 213 185 171 240 q 311 108 256 129 q 369 187 343 135 q 396 276 396 239 q 362 347 396 314 q 279 406 328 381 q 181 458 231 432 q 98 519 132 485 q 64 590 64 553 q 149 783 64 676 q 321 925 233 889 q 485 904 397 904 q 608 915 574 904 l 617 897 q 558 765 579 847 q 538 613 538 683 l 514 613 q 486 718 497 654 l 444 743 q 257 801 350 801 z "},"T":{"ha":733,"x_min":19,"x_max":786,"o":"m 422 911 q 626 899 578 899 q 690 904 674 899 q 768 978 735 950 l 786 969 q 721 764 739 881 l 689 774 q 542 796 639 788 q 507 315 507 535 q 528 0 507 94 q 268 -21 343 -6 l 260 -14 q 294 264 279 68 q 308 592 308 460 q 304 811 308 725 q 288 811 296 811 q 144 767 189 811 q 142 744 142 756 q 161 671 142 700 l 161 660 q 67 542 103 611 q 31 563 43 542 q 19 611 19 583 q 88 801 19 718 q 265 925 157 885 l 422 911 z "},"U":{"ha":890,"x_min":43,"x_max":813,"o":"m 118 285 l 139 635 q 122 856 139 785 q 43 879 75 864 l 44 904 q 378 922 258 904 l 386 915 q 351 669 365 825 q 336 414 336 513 q 338 281 336 315 q 346 204 339 247 q 414 111 360 122 q 550 278 501 174 q 560 635 560 439 q 544 901 560 831 q 804 922 731 907 l 813 915 q 777 621 790 815 q 764 249 764 426 q 779 0 764 71 q 538 -21 597 -8 l 528 -14 q 564 174 554 86 l 558 175 q 365 -21 481 31 q 174 58 229 -18 q 118 285 118 135 z "},"V":{"ha":753,"x_min":40,"x_max":747,"o":"m 514 714 q 471 869 514 831 l 471 882 q 660 958 589 914 q 747 769 747 914 q 396 -18 747 408 l 383 -21 l 336 1 q 286 26 324 7 q 228 53 249 44 q 126 79 165 79 q 69 74 88 79 l 63 93 q 107 200 100 124 q 126 606 126 438 q 119 856 126 774 q 40 879 71 864 l 42 904 q 371 922 251 904 l 379 915 q 325 267 331 700 q 326 185 325 215 q 410 117 353 140 q 514 714 514 411 z "},"W":{"ha":1081,"x_min":40,"x_max":1138,"o":"m 514 714 q 442 892 514 867 l 444 911 q 685 904 551 904 q 940 922 819 904 q 1125 976 1060 940 l 1138 961 q 1053 892 1111 929 q 1075 769 1075 849 q 976 350 1075 563 q 718 -18 876 138 l 706 -21 l 658 1 q 494 114 557 47 q 396 -18 449 46 l 383 -21 l 336 1 q 286 26 324 7 q 228 53 249 44 q 126 79 165 79 q 69 74 88 79 l 63 93 q 107 200 100 124 q 126 606 126 438 q 119 856 126 774 q 40 879 71 864 l 42 904 q 371 922 251 904 l 379 915 q 325 267 331 700 q 326 185 325 215 q 410 117 353 140 q 514 714 514 411 m 842 714 q 819 828 842 792 q 742 864 797 864 q 708 861 739 864 q 719 769 719 843 q 599 294 719 540 q 660 185 614 246 q 746 117 707 125 q 842 714 842 388 z "},"X":{"ha":731,"x_min":-19,"x_max":732,"o":"m 435 563 q 493 710 467 625 q 519 837 519 796 q 513 897 519 878 l 518 904 q 732 925 650 904 q 668 750 728 846 q 572 613 610 657 q 501 531 535 569 q 463 485 468 492 q 582 240 511 364 q 732 0 660 97 q 435 -21 553 -3 l 425 -18 q 307 364 346 254 q 247 197 274 290 q 219 65 219 103 q 226 8 219 28 l 221 1 q 7 -19 89 1 q 63 139 11 44 q 162 294 115 233 q 279 439 208 356 q 175 664 233 551 q 58 856 128 747 q -19 879 13 864 l -18 904 q 326 924 197 904 l 333 915 q 435 563 404 650 z "},"Y":{"ha":731,"x_min":-19,"x_max":732,"o":"m 435 515 q 492 683 464 572 q 519 835 519 793 q 513 897 519 878 l 518 904 q 732 925 650 904 q 649 699 726 829 q 476 454 572 569 q 469 226 469 358 q 490 0 469 94 q 231 -21 306 -6 l 222 -14 q 269 408 260 140 q 58 856 143 743 q -19 879 13 864 l -18 904 q 326 924 197 904 l 333 915 q 435 515 346 771 z "},"Z":{"ha":676,"x_min":-39,"x_max":675,"o":"m 361 949 q 519 904 431 904 q 653 944 607 904 l 675 931 q 574 772 653 901 q 429 521 496 643 l 265 213 l 271 208 q 303 221 296 219 q 474 157 401 157 q 513 233 513 157 q 510 269 513 247 l 514 279 q 650 346 589 299 q 672 307 672 335 q 538 91 672 222 q 313 -61 404 -40 q 93 24 168 24 q -18 -19 18 24 l -39 -1 q 160 306 3 49 l 394 690 l 390 694 q 358 683 381 689 q 315 706 333 696 q 283 721 297 715 q 233 731 260 731 q 194 654 194 731 q 197 618 194 640 l 193 608 q 57 542 118 589 q 35 581 35 553 q 153 783 35 658 q 361 949 272 907 z "},"[":{"ha":444,"x_min":89,"x_max":461,"o":"m 338 -268 q 99 -289 186 -268 l 89 -282 q 144 306 111 -185 q 178 877 178 797 q 176 971 178 957 l 188 978 q 424 957 271 957 q 461 957 442 957 l 458 922 q 288 894 385 919 l 210 -204 q 376 -233 306 -231 l 375 -268 q 338 -268 356 -268 z "},"\\":{"ha":394,"x_min":10,"x_max":385,"o":"m 304 -67 l 294 -67 l 104 639 q 10 964 49 842 q 103 1003 69 983 l 111 1003 q 186 667 144 825 l 304 249 q 385 -15 336 129 q 304 -67 356 -46 z "},"]":{"ha":444,"x_min":-17,"x_max":356,"o":"m 107 957 q 346 978 258 957 l 356 971 q 300 383 333 874 q 267 -188 267 -108 q 268 -282 267 -268 l 257 -289 q 21 -268 174 -268 q -17 -268 3 -268 l -14 -233 q 157 -206 60 -231 l 235 893 q 68 922 139 919 l 69 957 q 107 957 89 957 z "},"^":{"ha":719,"x_min":63,"x_max":657,"o":"m 360 764 l 110 386 l 63 411 q 194 658 143 554 q 321 953 244 763 l 394 967 q 526 660 474 772 q 657 411 579 549 l 610 386 l 360 764 z "},"_":{"ha":921,"x_min":10,"x_max":911,"o":"m 65 -174 q 540 -190 278 -190 q 899 -182 801 -190 l 911 -193 l 856 -269 l 25 -269 l 10 -256 l 65 -174 z "},"`":{"ha":386,"x_min":-56,"x_max":331,"o":"m -8 1035 q 27 1038 7 1038 q 67 1036 47 1038 q 331 788 129 921 l 311 754 l -56 900 q -38 972 -54 922 q -8 1035 -22 1021 z "},"a":{"ha":725,"x_min":31,"x_max":721,"o":"m 31 221 q 126 504 31 375 q 374 701 222 633 q 556 653 454 701 q 614 746 590 715 l 636 739 q 589 347 589 615 q 600 121 589 196 q 699 344 649 182 l 721 339 q 556 -21 671 58 q 429 40 461 -21 q 397 221 397 101 l 419 333 l 396 336 q 334 121 371 213 q 228 -21 297 29 q 83 49 136 -21 q 31 221 31 119 m 286 586 q 246 282 246 422 q 269 122 246 142 q 353 326 318 188 q 388 558 388 465 q 331 596 361 596 q 286 586 300 596 z "},"b":{"ha":693,"x_min":-6,"x_max":665,"o":"m 665 496 q 573 194 665 328 q 321 -21 481 60 l 276 -10 q 124 15 172 15 q 49 10 76 15 l 40 28 q 83 148 71 60 q 94 421 94 236 l 94 572 q 78 863 94 756 q -6 886 32 871 l -6 911 q 357 976 204 911 l 368 958 q 301 679 307 861 l 296 464 q 271 353 288 417 l 293 351 q 363 568 321 479 q 485 701 404 657 q 665 496 665 685 m 296 119 q 362 85 336 85 q 394 90 388 85 q 431 267 415 156 q 446 458 446 378 q 419 558 446 538 q 339 373 371 493 q 296 139 307 253 l 296 119 z "},"c":{"ha":483,"x_min":28,"x_max":497,"o":"m 28 232 q 116 497 28 374 q 342 701 204 619 q 440 681 407 681 q 489 686 474 681 l 497 665 q 425 426 435 596 l 400 426 q 385 496 393 453 l 365 525 q 326 567 353 546 q 281 589 300 588 q 243 299 243 453 q 307 122 243 144 q 414 299 369 182 l 447 292 q 260 -21 396 75 q 90 52 153 -18 q 28 232 28 122 z "},"d":{"ha":600,"x_min":-3,"x_max":596,"o":"m 596 581 q 505 231 596 397 q 260 -21 414 64 q 97 64 153 -11 q 42 254 42 139 q 274 640 42 482 q 47 744 149 719 l -3 757 q 24 885 24 822 q 18 982 24 947 l 43 986 q 120 915 60 949 q 286 829 181 881 l 582 681 q 596 581 596 642 m 257 299 q 259 216 257 247 q 275 143 261 185 q 317 88 289 101 q 372 278 351 151 q 393 463 393 404 q 389 550 393 522 q 318 610 371 575 l 293 578 q 257 299 257 461 z "},"e":{"ha":528,"x_min":28,"x_max":547,"o":"m 244 357 q 244 292 244 339 q 256 190 244 244 q 313 122 268 135 q 394 199 354 150 q 454 296 435 247 l 486 285 q 401 115 461 201 q 272 -21 340 28 q 92 52 156 -21 q 28 239 28 125 q 84 456 28 353 q 235 626 140 558 q 436 701 331 694 l 456 692 q 464 611 458 671 q 493 435 475 497 q 547 418 522 429 l 547 396 q 244 357 381 396 m 318 421 l 318 617 q 266 535 285 611 q 246 399 247 458 q 318 421 281 413 z "},"f":{"ha":417,"x_min":35,"x_max":540,"o":"m 303 382 q 325 0 303 86 q 107 -281 131 -110 l 76 -278 q 74 -231 74 -260 q 89 -3 74 -203 q 107 349 107 219 q 96 611 107 479 l 39 615 l 35 642 q 97 672 63 660 q 191 844 117 769 q 379 988 265 918 l 411 972 q 532 944 469 944 l 540 924 q 449 767 481 861 l 426 765 l 406 803 q 364 853 390 831 q 314 878 338 875 q 251 761 251 828 q 317 683 251 694 q 424 707 332 685 l 432 697 q 407 588 413 642 q 318 600 343 599 q 303 382 303 490 z "},"g":{"ha":696,"x_min":-128,"x_max":685,"o":"m 32 221 q 128 504 32 375 q 375 701 224 633 q 558 681 474 681 q 671 696 643 681 l 685 678 q 628 626 664 656 q 597 245 597 435 q 650 -90 597 56 q 468 -299 558 -154 l 425 -278 q 255 -216 353 -243 q 85 -189 157 -189 q -106 -271 -28 -189 l -128 -256 q 189 -17 -29 -126 q 73 65 114 -1 q 32 221 32 132 m 200 -44 q 353 -69 246 -44 q 505 -94 461 -94 q 567 -79 549 -94 q 446 49 493 -35 q 399 221 399 132 q 421 333 404 250 l 397 336 q 322 91 364 172 q 200 -44 279 10 m 288 586 q 247 282 247 422 q 271 122 247 142 q 354 326 319 188 q 389 558 389 465 q 331 596 361 596 q 288 586 301 596 z "},"h":{"ha":742,"x_min":50,"x_max":735,"o":"m 647 538 q 622 326 647 464 q 596 114 596 189 q 713 344 663 189 l 735 339 q 549 -21 685 69 q 396 106 396 -21 q 417 288 396 157 q 439 482 439 419 q 425 558 439 544 q 332 351 374 501 q 290 130 290 201 q 301 0 290 58 q 74 -21 183 0 l 65 -14 q 93 381 93 82 q 84 793 93 681 q 50 972 75 906 l 76 982 q 175 856 99 960 q 294 965 222 915 q 440 1042 367 1015 l 453 1019 q 334 880 368 967 q 297 660 300 793 l 292 464 q 267 353 283 417 l 289 351 q 490 701 349 624 q 647 538 647 701 z "},"i":{"ha":415,"x_min":10,"x_max":408,"o":"m 10 681 q 336 701 224 681 l 346 683 q 303 482 319 625 q 286 247 286 339 q 288 121 286 156 q 386 344 336 182 l 408 339 q 243 -21 358 58 q 117 20 154 -21 q 79 153 79 61 q 89 331 79 189 q 99 535 99 474 q 94 632 99 597 q 10 656 35 644 l 10 681 m 340 896 q 278 819 319 864 q 208 754 238 775 q 104 896 153 796 q 160 958 119 924 q 233 1010 200 993 q 340 896 288 975 z "},"j":{"ha":396,"x_min":10,"x_max":340,"o":"m 340 896 q 278 819 319 864 q 208 754 238 775 q 104 896 153 796 q 160 958 119 924 q 233 1010 200 993 q 340 896 288 975 m 303 382 q 325 0 303 86 q 107 -281 131 -110 l 76 -278 q 74 -231 74 -260 q 89 -3 74 -203 q 107 369 107 218 q 94 632 107 519 q 10 656 35 644 l 10 681 q 329 701 217 681 l 339 683 q 313 554 324 650 q 303 382 303 458 z "},"k":{"ha":739,"x_min":-7,"x_max":738,"o":"m 93 421 l 93 572 q 76 863 93 756 q -7 886 31 871 l -7 911 q 356 976 203 911 l 367 958 q 300 679 306 861 l 294 464 l 269 353 l 292 351 q 493 701 351 624 q 650 543 650 701 q 525 353 650 419 q 604 128 567 150 q 715 344 669 201 l 738 339 q 551 -21 688 69 q 445 9 482 -21 q 397 106 408 39 q 371 317 379 214 l 371 331 q 423 356 406 333 q 444 403 440 378 q 447 483 447 428 q 428 558 447 539 q 335 351 376 501 q 293 130 293 201 q 304 0 293 58 q 74 -21 183 0 l 65 -14 q 93 421 93 82 z "},"l":{"ha":406,"x_min":-1,"x_max":399,"o":"m 278 164 q 278 121 278 142 q 376 344 326 182 l 399 339 q 233 -21 349 58 q 107 20 144 -21 q 69 138 69 61 q 84 396 69 215 q 99 659 99 576 q 82 863 99 742 q -1 886 36 871 l -1 911 q 187 928 83 911 q 365 976 290 944 l 376 958 q 298 614 318 867 q 278 164 278 361 z "},"m":{"ha":1075,"x_min":14,"x_max":1068,"o":"m 981 538 q 955 326 981 464 q 929 114 929 189 q 1046 344 996 189 l 1068 339 q 882 -21 1018 69 q 729 106 729 -21 q 751 288 729 157 q 772 482 772 419 q 758 558 772 544 q 667 358 708 501 q 624 121 626 214 l 624 113 q 635 0 624 58 q 417 -21 526 0 l 408 -14 q 438 182 419 25 q 457 442 457 339 q 443 558 457 544 q 350 351 392 501 q 308 130 308 201 q 319 0 308 58 q 92 -21 201 0 l 83 -14 q 111 311 111 82 q 99 632 111 540 q 14 656 39 644 l 14 681 q 333 701 221 681 l 343 683 q 310 464 310 597 q 285 353 301 417 l 307 351 q 508 701 367 624 q 615 665 583 701 q 647 551 647 629 q 600 353 624 489 l 622 351 q 824 701 682 624 q 981 538 981 701 z "},"n":{"ha":753,"x_min":7,"x_max":746,"o":"m 658 538 q 633 326 658 464 q 607 114 607 189 q 724 344 674 189 l 746 339 q 560 -21 696 69 q 407 106 407 -21 q 428 288 407 157 q 450 482 450 419 q 436 558 450 544 q 343 351 385 501 q 301 130 301 201 q 313 0 301 58 q 85 -21 194 0 l 76 -14 q 104 311 104 82 q 92 632 104 540 q 7 656 32 644 l 7 681 q 326 701 214 681 l 336 683 q 303 464 303 597 q 278 353 294 417 l 300 351 q 501 701 360 624 q 658 538 658 701 z "},"o":{"ha":615,"x_min":28,"x_max":588,"o":"m 346 582 q 313 599 332 599 q 276 592 294 599 q 242 269 242 453 q 269 97 242 129 q 300 82 282 82 q 336 89 318 82 q 372 390 372 229 q 346 582 372 550 m 275 -21 q 92 53 157 -21 q 28 257 28 126 q 117 512 28 388 q 339 701 207 636 q 526 631 464 701 q 588 426 588 561 q 498 167 588 292 q 275 -21 408 42 z "},"p":{"ha":703,"x_min":10,"x_max":675,"o":"m 110 214 q 110 287 110 235 q 106 458 110 339 q 94 632 101 578 q 10 656 35 644 l 10 681 q 329 701 217 681 l 339 683 q 306 464 306 597 l 281 353 l 303 351 q 372 568 331 479 q 494 701 414 657 q 675 496 675 685 q 583 194 675 328 q 331 -21 490 60 l 286 -10 q 310 -185 288 -33 l 318 -236 q 49 -299 172 -250 l 36 -278 q 90 -178 76 -214 q 104 -79 103 -143 l 107 15 q 50 4 74 13 l 36 19 q 108 121 57 60 l 110 214 m 306 119 q 372 85 346 85 q 404 90 397 85 q 440 267 425 156 q 456 458 456 378 q 429 558 456 538 q 349 373 381 493 q 306 139 317 253 l 306 119 z "},"q":{"ha":694,"x_min":31,"x_max":693,"o":"m 31 221 q 126 504 31 375 q 374 701 222 633 q 557 681 472 681 q 669 696 642 681 l 683 678 q 626 626 663 656 q 596 132 596 432 q 608 -125 596 -18 q 688 -128 661 -125 l 693 -149 q 344 -300 496 -199 l 326 -285 q 342 -258 335 -271 q 354 -234 349 -244 q 364 -208 360 -224 q 372 -185 368 -193 q 377 -158 375 -178 q 381 -131 379 -137 q 383 -98 382 -124 q 386 -64 385 -72 q 389 24 389 -22 l 397 221 l 397 222 l 419 333 l 396 336 q 334 121 371 213 q 228 -21 297 29 q 83 49 136 -21 q 31 221 31 119 m 286 586 q 246 282 246 422 q 269 122 246 142 q 353 326 318 188 q 388 558 388 465 q 331 596 361 596 q 286 586 300 596 z "},"r":{"ha":579,"x_min":7,"x_max":618,"o":"m 425 547 q 340 341 378 481 q 301 130 301 201 q 313 0 301 58 q 85 -21 194 0 l 76 -14 q 104 311 104 82 q 92 632 104 540 q 7 656 32 644 l 7 681 q 326 701 214 681 l 336 683 q 303 464 303 597 q 278 353 294 417 l 300 351 q 369 558 324 460 q 486 701 415 656 q 610 675 553 675 l 618 654 q 567 540 588 614 q 542 403 546 465 l 517 403 q 501 472 510 429 q 425 547 478 513 z "},"s":{"ha":538,"x_min":6,"x_max":536,"o":"m 174 274 q 168 224 168 256 q 198 145 168 192 q 265 79 228 99 q 314 140 293 104 q 335 208 335 176 q 194 314 335 244 q 98 380 142 340 q 54 461 54 419 q 108 556 54 503 q 339 701 208 654 q 454 681 404 681 q 522 693 504 681 l 536 678 q 444 519 472 603 l 431 515 l 394 542 q 332 581 371 560 q 268 607 293 603 q 232 550 232 583 q 364 451 232 514 q 455 391 414 428 q 496 317 496 354 q 414 138 496 232 q 235 -21 332 44 q 111 19 174 -15 q 18 94 49 53 l 6 111 q 154 285 110 204 l 174 274 z "},"t":{"ha":450,"x_min":35,"x_max":433,"o":"m 319 600 q 299 453 313 564 q 286 251 286 343 q 288 121 286 160 q 354 214 322 154 q 404 331 386 274 l 426 325 q 363 119 410 218 q 243 -21 315 21 q 117 20 154 -21 q 79 153 79 61 q 89 339 79 203 q 99 521 99 475 q 96 611 99 567 l 39 615 l 35 642 q 163 718 100 669 q 256 818 225 767 q 328 838 294 825 l 340 829 q 328 685 328 758 q 425 707 372 690 l 433 697 q 408 588 414 642 q 319 600 344 599 z "},"u":{"ha":760,"x_min":10,"x_max":753,"o":"m 429 219 q 451 333 439 275 l 428 336 q 314 42 379 119 q 238 -21 281 3 q 112 32 157 -21 q 67 171 67 85 q 82 360 67 225 q 97 549 97 494 q 94 632 97 604 q 10 656 35 644 l 10 681 q 336 701 224 681 l 346 683 q 293 467 311 600 q 275 232 275 333 q 303 122 275 131 q 386 331 349 182 q 424 551 424 479 q 413 681 424 622 q 640 701 531 681 l 649 694 q 621 339 621 599 q 632 121 621 204 q 731 344 681 182 l 753 339 q 588 -21 703 58 q 461 40 493 -21 q 429 219 429 100 z "},"v":{"ha":664,"x_min":14,"x_max":693,"o":"m 356 683 q 315 410 315 579 q 321 164 315 242 q 368 93 353 104 q 433 489 433 272 q 374 657 433 640 l 378 681 q 676 736 565 681 l 693 714 q 624 660 674 689 q 638 561 638 614 q 544 228 638 392 q 319 -21 451 64 l 299 -10 q 187 38 228 26 q 115 50 146 50 q 67 47 83 50 l 61 65 q 101 149 89 92 q 114 363 114 206 q 99 632 114 521 q 14 656 39 644 l 14 681 q 346 701 233 681 l 356 683 z "},"w":{"ha":931,"x_min":14,"x_max":960,"o":"m 356 683 q 315 410 315 579 q 321 164 315 242 q 368 93 353 104 q 433 489 433 272 q 375 663 433 644 l 379 686 q 655 681 478 681 q 943 736 832 681 l 960 714 q 890 660 940 689 q 904 561 904 614 q 811 228 904 392 q 586 -21 718 64 l 565 -10 q 433 92 482 36 q 319 -21 381 26 l 299 -10 q 187 38 228 26 q 115 50 146 50 q 67 47 83 50 l 61 65 q 101 149 89 92 q 114 363 114 206 q 99 632 114 521 q 14 656 39 644 l 14 681 q 346 701 233 681 l 356 683 m 596 636 q 604 546 604 599 q 581 401 604 493 q 525 247 557 308 q 565 163 536 210 q 621 93 594 115 q 700 476 700 310 q 638 643 700 643 q 596 636 617 643 z "},"x":{"ha":650,"x_min":-49,"x_max":640,"o":"m 340 683 q 332 636 332 663 q 360 457 332 553 l 378 396 l 382 396 q 422 576 389 489 q 513 701 454 663 q 582 681 547 681 q 632 686 617 681 l 640 665 q 568 415 578 596 l 543 415 q 528 485 536 440 l 518 496 q 465 536 490 526 q 427 426 442 496 q 413 324 413 356 q 415 285 413 293 q 489 128 460 144 q 617 318 572 204 l 640 311 q 426 -21 571 82 q 346 -8 378 -21 q 293 38 314 4 q 262 98 272 71 q 235 186 251 125 l 208 283 l 204 283 q 79 -21 193 58 q 10 0 44 0 q -40 -6 -25 0 l -49 15 q 24 265 14 85 l 49 265 q 64 196 56 240 l 74 185 q 126 144 101 154 q 172 379 172 226 q 165 418 172 394 q 83 632 107 608 q -1 656 24 644 l -1 681 q 331 701 218 681 l 340 683 z "},"y":{"ha":711,"x_min":-96,"x_max":682,"o":"m 650 694 q 622 340 622 599 q 682 -90 622 81 q 500 -299 590 -154 l 457 -278 q 287 -216 385 -243 q 117 -189 189 -189 q -74 -271 4 -189 l -96 -256 q 217 -19 3 -125 q 107 39 146 -12 q 68 158 68 90 q 83 360 68 225 q 99 549 99 494 q 96 632 99 604 q 11 656 36 644 l 11 681 q 338 701 225 681 l 347 683 q 294 467 313 600 q 276 232 276 333 q 304 122 276 131 q 388 331 350 182 q 425 551 425 479 q 414 681 425 622 q 642 701 532 681 l 650 694 m 431 219 q 453 333 440 275 l 429 336 q 351 99 399 188 q 232 -44 304 10 q 385 -69 278 -44 q 537 -94 493 -94 q 599 -79 581 -94 q 478 49 525 -35 q 431 219 431 133 z "},"z":{"ha":550,"x_min":-19,"x_max":522,"o":"m 246 321 q 174 346 206 346 q 125 340 142 346 l 114 369 q 290 506 217 418 q 161 526 207 526 q 101 519 115 526 q 56 444 82 476 l 33 454 q 60 599 60 526 q 43 708 60 672 l 58 725 q 379 681 125 681 q 506 686 456 681 l 513 664 q 290 446 450 564 l 290 438 q 408 407 361 429 q 492 440 435 421 l 503 418 q 446 385 474 404 q 522 222 522 328 q 414 4 522 114 q 210 -160 322 -89 q 88 -112 147 -147 q -7 -31 28 -76 l -19 -14 q 73 173 -3 82 q 246 321 149 264 m 308 139 q 272 293 308 242 q 194 194 226 254 q 161 90 161 135 q 189 0 161 46 q 256 -60 217 -46 q 294 29 281 -31 q 308 139 308 89 z "},"{":{"ha":417,"x_min":65,"x_max":389,"o":"m 267 828 q 265 773 265 813 q 281 630 265 733 q 297 495 297 526 q 297 457 297 464 q 160 347 274 413 l 160 342 q 281 232 264 278 q 239 53 276 178 q 197 -137 201 -71 q 237 -215 207 -176 q 301 -272 267 -253 l 289 -299 q 158 -222 221 -278 q 96 -108 96 -165 q 128 75 96 -61 q 160 263 160 211 q 133 306 160 289 q 69 328 107 322 l 65 354 q 171 429 168 376 q 172 492 172 451 q 165 614 172 533 q 157 733 157 694 q 158 790 157 772 q 235 908 163 850 q 379 988 308 967 l 389 963 q 317 906 351 944 q 267 828 282 867 z "},"|":{"ha":363,"x_min":128,"x_max":235,"o":"m 231 -271 q 154 -303 197 -290 l 140 -297 q 128 999 140 742 q 225 1049 185 1021 l 235 1047 q 231 -271 231 647 z "},"}":{"ha":408,"x_min":28,"x_max":351,"o":"m 150 -139 q 151 -84 151 -124 q 135 59 151 -44 q 119 194 119 163 q 119 232 119 225 q 257 342 143 276 l 257 347 q 136 457 153 411 q 178 635 140 511 q 219 826 215 760 q 180 903 210 865 q 115 961 150 942 l 128 988 q 258 910 196 967 q 321 797 321 854 q 289 608 321 743 q 257 426 257 472 q 283 383 257 400 q 347 361 310 367 l 351 335 q 246 260 249 313 q 244 197 244 238 q 252 75 244 156 q 260 -44 260 -6 q 258 -101 260 -83 q 181 -219 254 -161 q 38 -299 108 -278 l 28 -274 q 100 -217 65 -256 q 150 -139 135 -178 z "},"~":{"ha":1006,"x_min":29,"x_max":976,"o":"m 706 385 q 944 503 824 385 l 976 476 q 838 331 929 401 q 663 236 746 260 q 464 297 601 236 q 264 358 326 358 q 61 249 146 358 l 29 275 q 180 431 82 357 q 363 515 278 506 q 706 385 556 385 z "}," ":{"ha":229,"x_min":0,"x_max":0,"o":""},"¡":{"ha":360,"x_min":-29,"x_max":331,"o":"m 331 582 q 267 501 310 549 q 193 432 225 454 q 132 499 164 453 q 83 582 100 544 q 141 647 99 611 q 218 701 183 683 q 331 582 278 664 m 47 -301 q 36 -301 42 -301 q -29 -206 1 -268 q 163 343 107 93 l 226 350 l 204 -260 q 47 -301 111 -301 z "},"¢":{"ha":493,"x_min":28,"x_max":507,"o":"m 274 -1 q 94 66 160 1 q 28 254 28 131 q 109 493 28 378 q 322 690 190 608 l 329 817 q 371 825 354 819 l 376 821 q 364 694 371 779 q 449 681 415 681 q 499 686 483 681 l 507 665 q 435 432 444 596 l 410 432 q 394 501 403 458 l 375 531 q 351 554 367 542 l 325 146 q 428 318 382 203 l 461 311 q 315 32 419 135 l 308 -126 l 301 -128 q 261 -107 275 -119 l 275 0 l 274 -1 m 281 589 q 243 322 243 453 q 286 156 243 192 l 315 578 q 281 589 300 586 z "},"£":{"ha":558,"x_min":10,"x_max":588,"o":"m 92 188 l 83 333 l 21 331 l 10 338 l 32 401 l 90 401 q 201 593 114 499 q 389 747 288 688 q 507 726 450 726 q 579 732 564 726 l 588 711 q 516 606 542 671 q 488 472 490 542 l 463 472 q 447 542 456 497 l 428 571 q 383 613 413 593 q 328 635 353 633 q 298 527 311 596 q 285 415 285 458 l 285 407 q 458 421 344 410 l 469 414 l 446 357 l 281 346 q 196 175 267 243 q 322 164 253 164 q 424 178 392 164 q 479 268 461 246 l 501 257 q 469 98 469 178 q 489 -10 469 18 l 476 -29 q 164 11 325 11 q 33 -18 76 11 l 19 -4 q 72 83 53 29 q 92 188 92 138 z "},"¤":{"ha":788,"x_min":7,"x_max":804,"o":"m 103 388 q 182 592 103 501 q 51 715 122 649 q 107 793 61 747 l 115 793 l 249 650 q 432 726 332 707 q 601 683 535 726 l 713 792 q 801 765 764 772 l 804 758 l 653 626 q 686 496 686 574 q 592 276 686 371 l 588 274 q 763 117 726 147 l 760 111 q 667 85 728 107 l 526 222 q 376 161 460 178 q 193 206 264 161 l 50 83 l 42 83 q 7 158 13 115 q 138 263 38 181 q 103 388 103 313 m 388 635 q 271 604 314 635 q 225 449 225 543 q 269 304 225 356 q 394 253 314 253 q 518 283 475 253 q 565 440 565 344 q 388 635 565 635 z "},"¥":{"ha":724,"x_min":-10,"x_max":714,"o":"m 457 274 l 456 228 q 590 235 560 232 l 594 229 q 571 185 578 208 l 456 181 q 476 0 456 96 q 236 -21 314 -4 l 228 -14 q 263 175 250 79 q 118 165 172 172 l 114 171 q 158 217 154 211 l 269 221 l 272 268 q 124 258 179 265 l 119 264 q 164 310 160 304 l 267 314 q 68 675 143 599 q -10 699 22 683 l -8 724 q 329 743 200 724 l 336 735 q 431 394 349 615 q 486 535 463 456 q 510 656 510 615 q 503 717 510 697 l 508 724 q 714 744 632 724 q 685 636 711 686 q 644 561 658 586 q 600 498 629 536 q 556 442 571 460 q 463 329 490 361 l 461 321 q 596 328 565 325 l 600 322 q 576 278 583 301 l 457 274 z "},"¦":{"ha":363,"x_min":128,"x_max":235,"o":"m 231 479 q 154 447 197 460 l 140 453 q 135 833 140 718 q 128 1008 129 947 q 225 1058 185 1031 l 235 1057 q 231 479 231 657 m 231 -269 q 154 -301 197 -289 l 140 -296 q 135 81 140 -29 q 128 253 129 190 q 225 304 194 282 l 235 303 q 231 -269 231 -97 z "},"§":{"ha":592,"x_min":14,"x_max":578,"o":"m 578 429 q 425 200 578 324 q 497 90 497 140 q 444 -14 497 39 q 213 -160 343 -112 q 97 -139 147 -139 q 29 -151 47 -139 l 15 -136 q 107 22 79 -61 l 121 26 l 157 0 q 219 -40 181 -18 q 283 -65 258 -61 q 319 -2 319 -44 q 272 82 319 40 q 167 158 224 124 q 62 240 110 192 q 14 336 14 289 q 167 564 14 446 q 94 676 94 626 q 147 779 94 726 q 379 925 249 878 q 494 904 444 904 q 563 917 544 904 l 576 901 q 485 743 513 826 l 471 739 l 435 765 q 372 805 411 783 q 308 831 333 826 q 272 767 272 810 q 320 683 272 725 q 425 608 368 642 q 530 525 482 574 q 578 429 578 476 m 417 327 q 417 352 417 327 q 369 415 417 376 q 276 485 322 454 q 211 529 229 517 q 175 431 175 486 q 267 314 175 378 q 325 273 288 299 q 381 235 363 247 q 417 327 417 278 z "},"¨":{"ha":563,"x_min":19,"x_max":563,"o":"m 256 906 q 194 829 235 874 q 124 764 153 785 q 19 906 68 806 q 75 968 35 933 q 149 1019 115 1003 q 256 906 203 985 m 563 906 q 501 829 542 874 q 431 764 460 785 q 326 906 375 806 q 382 968 342 933 q 456 1019 422 1003 q 563 906 510 985 z "},"©":{"ha":1029,"x_min":42,"x_max":988,"o":"m 507 165 q 345 220 404 165 q 286 377 286 275 q 353 585 286 479 q 510 744 421 692 q 626 725 578 725 q 696 731 674 725 l 703 719 q 657 538 657 668 l 632 538 q 611 606 618 569 l 596 621 q 550 650 579 638 q 510 663 521 663 q 499 663 500 663 q 446 411 446 540 q 543 243 446 243 q 581 361 581 274 q 578 382 581 365 l 582 386 q 647 396 601 388 q 707 410 692 404 q 635 268 692 336 q 507 165 579 200 m 502 -21 q 404 -21 502 -21 q 174 111 306 -21 q 42 435 42 243 q 184 776 42 626 q 524 925 326 925 q 855 792 722 925 q 988 467 988 658 q 843 127 988 275 q 502 -21 699 -21 m 914 462 q 914 545 914 462 q 801 741 914 628 q 526 854 689 854 q 240 731 364 854 q 115 442 115 608 q 226 163 115 275 q 503 50 338 50 q 791 173 668 50 q 914 462 914 296 z "},"ª":{"ha":610,"x_min":53,"x_max":601,"o":"m 344 551 q 361 642 350 571 l 343 644 q 208 360 301 425 q 94 415 136 360 q 53 551 53 471 q 129 778 53 675 q 325 933 206 881 q 469 896 388 933 q 517 969 508 958 l 535 964 q 497 653 497 867 q 506 471 497 535 q 583 651 542 518 l 601 647 q 469 360 561 424 q 369 408 394 360 q 344 551 344 456 m 256 835 q 226 598 226 703 q 244 481 226 493 q 307 637 281 531 q 333 815 333 743 q 289 842 311 842 q 256 835 267 842 z "},"«":{"ha":674,"x_min":47,"x_max":664,"o":"m 228 396 l 360 121 l 321 97 q 47 371 185 281 l 50 406 q 390 667 226 496 l 422 644 l 228 396 m 493 396 l 611 149 l 568 124 q 450 263 507 207 q 313 371 393 318 l 315 406 q 628 639 489 494 l 664 613 l 493 396 z "},"¬":{"ha":800,"x_min":75,"x_max":725,"o":"m 625 317 l 86 317 l 75 326 l 88 418 q 490 406 324 406 q 710 410 656 406 l 718 401 q 725 122 718 306 l 718 114 l 625 126 l 625 317 z "},"®":{"ha":603,"x_min":29,"x_max":574,"o":"m 294 422 q 237 422 294 422 q 105 498 181 422 q 29 688 29 574 q 111 884 29 801 q 308 967 193 967 q 498 890 422 967 q 574 701 574 814 q 490 505 574 588 q 294 422 407 422 m 310 908 q 265 908 310 908 q 153 846 219 908 q 88 693 88 783 q 145 540 88 603 q 293 478 203 478 q 448 542 383 478 q 513 696 513 606 q 456 847 513 786 q 310 908 400 908 m 176 840 l 321 844 q 413 781 413 844 q 354 703 413 718 l 389 640 q 436 565 410 603 q 403 565 426 565 q 346 558 381 565 l 343 560 q 297 697 321 649 l 285 697 l 288 722 q 333 769 333 722 q 306 817 333 817 q 282 811 292 817 q 274 663 274 743 q 278 565 274 582 q 193 560 222 565 l 190 563 q 204 711 204 626 q 200 815 204 796 q 174 825 186 819 l 176 840 z "},"¯":{"ha":501,"x_min":0,"x_max":501,"o":"m 90 964 q 275 957 165 957 q 486 964 385 957 l 501 951 l 463 847 l 14 842 l 0 851 l 39 969 l 90 964 z "},"°":{"ha":506,"x_min":63,"x_max":447,"o":"m 256 550 q 118 591 174 550 q 63 712 63 632 q 120 851 63 792 q 267 926 178 911 q 397 885 347 926 q 447 763 447 843 q 394 626 447 683 q 256 550 342 568 m 242 853 q 176 836 197 853 q 158 744 158 797 q 186 657 158 690 q 263 624 214 624 q 333 640 313 624 q 351 729 351 679 q 242 853 351 853 z "},"±":{"ha":800,"x_min":74,"x_max":728,"o":"m 450 364 q 463 125 450 257 l 365 119 l 351 122 l 351 364 l 96 364 l 85 374 l 97 472 q 351 463 267 464 l 351 675 l 450 688 l 457 679 q 450 463 450 557 l 450 461 q 583 460 501 460 q 719 464 665 460 l 728 456 l 715 364 l 450 364 m 86 81 q 488 68 322 68 q 708 72 654 68 l 717 64 l 704 -14 l 85 -14 l 74 -4 l 86 81 z "},"²":{"ha":544,"x_min":19,"x_max":481,"o":"m 275 832 q 211 907 275 907 q 158 899 183 907 q 150 849 150 869 q 164 822 150 829 l 164 814 q 64 756 97 792 q 47 767 49 756 q 46 778 46 771 l 46 786 q 123 933 46 846 q 271 1039 200 1021 q 430 997 381 1039 q 479 850 479 954 q 348 732 440 801 q 243 653 256 663 q 330 642 281 642 q 410 651 379 642 q 465 725 435 690 l 481 717 q 454 580 454 650 q 472 485 454 510 l 463 471 q 136 503 292 503 q 42 476 74 503 l 19 489 q 169 661 51 561 q 242 744 210 697 q 275 832 275 790 z "},"³":{"ha":501,"x_min":19,"x_max":482,"o":"m 281 678 q 213 756 281 756 q 176 750 193 756 l 169 772 q 268 886 233 813 q 190 899 218 899 q 149 894 161 899 q 113 832 128 851 l 92 839 q 114 949 114 890 q 100 1031 114 1007 l 113 1044 q 343 1010 165 1010 q 457 1017 408 1010 l 463 996 q 299 839 407 906 l 299 835 q 482 717 482 835 q 453 633 482 675 q 378 561 424 592 q 210 472 296 503 q 101 496 157 472 q 19 560 46 519 q 142 701 106 618 l 171 690 q 160 654 160 669 q 229 542 160 565 q 281 678 281 576 z "},"´":{"ha":386,"x_min":56,"x_max":442,"o":"m 319 1036 q 359 1038 339 1038 q 394 1035 379 1038 q 424 972 408 1021 q 442 900 440 922 l 75 754 l 56 788 q 319 1036 257 921 z "},"µ":{"ha":781,"x_min":58,"x_max":774,"o":"m 450 219 q 472 333 460 275 l 449 336 q 333 42 400 119 q 258 -21 301 3 q 221 -1 239 -17 q 250 -272 221 -147 l 246 -276 q 71 -304 147 -283 l 58 -294 q 85 199 78 -161 l 90 460 q 92 553 92 496 q 82 676 92 611 l 88 681 q 333 701 281 688 l 342 694 q 296 226 296 522 q 324 122 296 131 q 407 331 369 182 q 444 551 444 479 q 433 681 444 622 q 661 701 551 681 l 669 694 q 642 339 642 599 q 653 121 642 204 q 751 344 701 182 l 774 339 q 608 -21 724 58 q 482 40 514 -21 q 450 219 450 100 z "},"¶":{"ha":799,"x_min":29,"x_max":799,"o":"m 338 914 l 531 904 l 536 897 q 482 451 503 744 l 468 251 q 386 -35 457 79 q 290 -126 350 -93 q 153 -160 231 -160 q 118 -147 132 -160 q 104 -114 104 -135 q 181 -31 156 -76 l 193 -29 q 251 -46 211 -46 q 322 -32 292 -46 q 371 182 364 67 l 386 414 q 339 410 361 410 q 118 488 207 410 q 29 686 29 565 q 115 860 29 807 q 338 914 200 914 m 799 922 q 706 693 742 881 q 669 292 669 506 q 690 0 669 78 q 500 -21 578 0 l 494 -15 q 553 431 528 75 q 603 904 579 786 q 789 940 719 913 l 799 922 z "},"·":{"ha":306,"x_min":29,"x_max":276,"o":"m 276 397 q 213 317 256 364 q 139 247 171 269 q 78 314 110 268 q 29 397 46 360 q 87 463 44 426 q 164 517 129 499 q 276 397 224 479 z "},"¸":{"ha":314,"x_min":1,"x_max":311,"o":"m 311 -175 q 310 -194 311 -185 q 142 -326 244 -294 q 1 -292 68 -326 q 54 -192 25 -257 l 61 -189 q 165 -244 99 -244 q 203 -239 190 -244 q 211 -203 211 -228 q 90 -140 211 -140 l 81 -133 l 161 24 l 224 26 l 171 -53 l 176 -58 q 277 -92 243 -58 q 311 -175 311 -125 z "},"¹":{"ha":431,"x_min":33,"x_max":381,"o":"m 275 1031 l 339 1036 l 342 1033 q 314 709 314 821 q 318 549 314 597 q 381 497 350 511 l 374 472 q 212 488 318 488 q 39 474 106 488 l 33 497 q 113 535 79 522 q 133 818 133 681 l 128 897 l 44 897 l 42 900 q 44 936 42 928 q 275 1031 181 963 z "},"º":{"ha":544,"x_min":53,"x_max":490,"o":"m 300 824 q 274 836 289 836 q 247 831 258 836 q 222 590 222 718 q 242 461 222 483 q 267 449 253 449 q 293 454 282 449 q 319 682 319 564 q 300 824 319 800 m 246 360 q 103 417 153 360 q 53 577 53 475 q 123 776 53 679 q 296 925 193 874 q 442 869 393 925 q 490 709 490 814 q 420 506 490 604 q 246 360 350 408 z "},"»":{"ha":674,"x_min":10,"x_max":626,"o":"m 446 368 l 314 643 l 353 667 q 626 393 489 483 l 624 358 q 283 97 447 268 l 251 119 l 446 368 m 181 368 l 63 615 l 106 640 q 224 501 167 557 q 361 393 281 446 l 358 358 q 46 125 185 269 l 10 151 l 181 368 z "},"¼":{"ha":1111,"x_min":39,"x_max":1076,"o":"m 181 -67 l 171 -67 q 128 11 153 -53 q 385 313 317 226 l 692 700 q 901 982 754 776 q 993 968 944 971 l 1000 963 q 785 699 954 911 l 181 -67 m 964 131 q 968 74 964 106 q 1032 28 990 47 l 1025 3 q 864 18 969 18 q 692 4 758 18 l 686 28 q 765 58 724 46 q 779 131 778 92 l 549 131 l 536 181 q 778 539 688 356 q 996 578 894 544 l 1004 574 q 967 228 971 494 q 1058 258 1022 228 l 1076 246 q 1047 125 1054 185 q 964 131 1013 131 m 782 435 q 671 238 739 331 q 781 229 718 229 l 789 435 l 782 435 m 281 921 l 344 926 l 347 924 q 319 599 319 711 q 324 439 319 486 q 386 388 356 401 l 379 363 q 217 378 324 378 q 44 364 111 378 l 39 388 q 118 425 85 413 q 139 708 139 571 l 133 788 l 50 788 l 47 790 q 50 826 47 818 q 281 921 186 853 z "},"½":{"ha":1111,"x_min":39,"x_max":1067,"o":"m 181 -67 l 171 -67 q 128 11 153 -53 q 385 313 317 226 l 692 700 q 901 982 754 776 q 993 968 944 971 l 1000 963 q 785 699 954 911 l 181 -67 m 281 921 l 344 926 l 347 924 q 319 599 319 711 q 324 439 319 486 q 386 388 356 401 l 379 363 q 217 378 324 378 q 44 364 111 378 l 39 388 q 118 425 85 413 q 139 708 139 571 l 133 788 l 50 788 l 47 790 q 50 826 47 818 q 281 921 186 853 m 861 358 q 797 433 861 433 q 744 425 769 433 q 736 376 736 396 q 750 349 736 356 l 750 340 q 650 282 683 318 q 633 293 635 282 q 632 303 632 297 l 632 313 q 709 460 632 372 q 857 565 786 547 q 1016 523 967 565 q 1065 376 1065 481 q 934 258 1026 328 q 829 179 842 189 q 916 168 867 168 q 996 178 965 168 q 1051 251 1021 217 l 1067 243 q 1040 107 1040 178 q 1058 11 1040 36 l 1049 -3 q 722 29 878 29 q 628 3 660 29 l 606 15 q 756 189 638 88 q 828 270 796 224 q 861 358 861 317 z "},"¾":{"ha":1111,"x_min":19,"x_max":1076,"o":"m 281 567 q 213 644 281 644 q 176 639 193 644 l 169 661 q 268 775 233 701 q 190 788 218 788 q 149 783 161 788 q 113 721 128 740 l 92 728 q 114 838 114 779 q 100 919 114 896 l 113 933 q 343 899 165 899 q 457 906 408 899 l 463 885 q 299 728 407 794 l 299 724 q 482 606 482 724 q 453 522 482 564 q 378 450 424 481 q 210 361 296 392 q 101 385 157 361 q 19 449 46 408 q 142 590 106 507 l 171 579 q 160 543 160 558 q 229 431 160 454 q 281 567 281 465 m 181 -67 l 171 -67 q 128 11 153 -53 q 385 313 317 226 l 692 700 q 901 982 754 776 q 993 968 944 971 l 1000 963 q 785 699 954 911 l 181 -67 m 964 131 q 968 74 964 106 q 1032 28 990 47 l 1025 3 q 864 18 969 18 q 692 4 758 18 l 686 28 q 765 58 724 46 q 779 131 778 92 l 549 131 l 536 181 q 778 539 688 356 q 996 578 894 544 l 1004 574 q 967 228 971 494 q 1058 258 1022 228 l 1076 246 q 1047 125 1054 185 q 964 131 1013 131 m 782 435 q 671 238 739 331 q 781 229 718 229 l 789 435 l 782 435 z "},"¿":{"ha":438,"x_min":-53,"x_max":429,"o":"m 311 119 q 220 13 257 76 q 183 -117 183 -51 q 235 -183 183 -183 q 275 -176 258 -183 q 288 -117 288 -151 q 268 -67 288 -83 l 271 -56 q 394 25 349 -21 q 429 -17 429 25 q 353 -188 429 -112 q 169 -299 276 -264 q 9 -243 71 -299 q -53 -92 -53 -187 q -10 -43 -26 -58 q 17 -18 7 -28 q 44 6 26 -8 q 70 26 61 19 q 100 47 79 33 l 128 67 q 158 89 135 72 q 186 108 181 106 q 214 230 200 149 q 232 328 228 311 l 318 342 l 311 119 m 408 569 q 345 489 388 536 q 271 419 303 442 q 210 486 242 440 q 161 569 178 532 q 221 643 178 600 q 296 703 264 686 q 408 569 342 675 z "},"À":{"ha":782,"x_min":-29,"x_max":704,"o":"m 442 296 q 382 304 413 304 q 326 304 351 304 q 267 296 301 304 q 238 113 238 178 q 247 -1 238 47 q -12 -21 99 -1 l -29 -10 l 265 854 q 175 893 224 868 l 181 919 q 447 904 288 904 q 696 919 607 904 l 704 913 q 671 638 685 831 q 657 263 657 446 q 672 0 657 81 q 413 -21 486 -6 l 404 -14 q 442 296 429 96 m 286 401 q 365 392 311 392 q 446 403 419 392 q 453 653 453 553 q 447 821 453 753 q 422 825 440 825 q 396 821 404 825 q 354 699 371 783 l 286 401 m 190 1257 q 226 1260 206 1260 q 265 1258 246 1260 q 346 1169 290 1214 q 439 1102 401 1124 q 549 1043 476 1081 l 533 1008 l 153 1114 q 165 1191 153 1138 q 190 1257 178 1244 z "},"Á":{"ha":782,"x_min":-29,"x_max":793,"o":"m 442 296 q 382 304 413 304 q 326 304 351 304 q 267 296 301 304 q 238 113 238 178 q 247 -1 238 47 q -12 -21 99 -1 l -29 -10 l 265 854 q 175 893 224 868 l 181 919 q 447 904 288 904 q 696 919 607 904 l 704 913 q 671 638 685 831 q 657 263 657 446 q 672 0 657 81 q 413 -21 486 -6 l 404 -14 q 442 296 429 96 m 286 401 q 365 392 311 392 q 446 403 419 392 q 453 653 453 553 q 447 821 453 753 q 422 825 440 825 q 396 821 404 825 q 354 699 371 783 l 286 401 m 681 1258 q 720 1260 700 1260 q 756 1257 740 1260 q 781 1191 768 1244 q 793 1114 793 1138 l 413 1008 l 397 1043 q 507 1102 469 1081 q 600 1169 544 1124 q 681 1258 656 1214 z "},"Â":{"ha":782,"x_min":-29,"x_max":774,"o":"m 442 296 q 382 304 413 304 q 326 304 351 304 q 267 296 301 304 q 238 113 238 178 q 247 -1 238 47 q -12 -21 99 -1 l -29 -10 l 265 854 q 175 893 224 868 l 181 919 q 447 904 288 904 q 696 919 607 904 l 704 913 q 671 638 685 831 q 657 263 657 446 q 672 0 657 81 q 413 -21 486 -6 l 404 -14 q 442 296 429 96 m 286 401 q 365 392 311 392 q 446 403 419 392 q 453 653 453 553 q 447 821 453 753 q 422 825 440 825 q 396 821 404 825 q 354 699 371 783 l 286 401 m 758 1008 l 472 1092 l 214 1008 l 199 1043 q 468 1258 404 1150 l 532 1258 q 774 1043 608 1129 l 758 1008 z "},"Ã":{"ha":782,"x_min":-29,"x_max":775,"o":"m 442 296 q 382 304 413 304 q 326 304 351 304 q 267 296 301 304 q 238 113 238 178 q 247 -1 238 47 q -12 -21 99 -1 l -29 -10 l 265 854 q 175 893 224 868 l 181 919 q 447 904 288 904 q 696 919 607 904 l 704 913 q 671 638 685 831 q 657 263 657 446 q 672 0 657 81 q 413 -21 486 -6 l 404 -14 q 442 296 429 96 m 286 401 q 365 392 311 392 q 446 403 419 392 q 453 653 453 553 q 447 821 453 753 q 422 825 440 825 q 396 821 404 825 q 354 699 371 783 l 286 401 m 626 1156 q 742 1204 694 1156 l 775 1181 q 581 1015 686 1058 q 453 1049 546 1015 q 326 1082 361 1082 q 214 1033 260 1082 l 179 1057 q 283 1153 215 1107 q 418 1222 350 1200 q 626 1156 519 1156 z "},"Ä":{"ha":782,"x_min":-29,"x_max":754,"o":"m 442 296 q 382 304 413 304 q 326 304 351 304 q 267 296 301 304 q 238 113 238 178 q 247 -1 238 47 q -12 -21 99 -1 l -29 -10 l 265 854 q 175 893 224 868 l 181 919 q 447 904 288 904 q 696 919 607 904 l 704 913 q 671 638 685 831 q 657 263 657 446 q 672 0 657 81 q 413 -21 486 -6 l 404 -14 q 442 296 429 96 m 286 401 q 365 392 311 392 q 446 403 419 392 q 453 653 453 553 q 447 821 453 753 q 422 825 440 825 q 396 821 404 825 q 354 699 371 783 l 286 401 m 447 1131 q 385 1054 426 1099 q 315 989 344 1010 q 211 1131 260 1031 q 267 1193 226 1158 q 340 1244 307 1228 q 447 1131 394 1210 m 754 1131 q 692 1054 733 1099 q 622 989 651 1010 q 518 1131 567 1031 q 574 1193 533 1158 q 647 1244 614 1228 q 754 1131 701 1210 z "},"Å":{"ha":782,"x_min":-29,"x_max":704,"o":"m 442 296 q 382 304 413 304 q 326 304 351 304 q 267 296 301 304 q 238 113 238 178 q 247 -1 238 47 q -12 -21 99 -1 l -29 -10 l 265 854 q 175 893 224 868 l 181 919 q 447 904 288 904 q 696 919 607 904 l 704 913 q 671 638 685 831 q 657 263 657 446 q 672 0 657 81 q 413 -21 486 -6 l 404 -14 q 442 296 429 96 m 286 401 q 365 392 311 392 q 446 403 419 392 q 453 653 453 553 q 447 821 453 753 q 422 825 440 825 q 396 821 404 825 q 354 699 371 783 l 286 401 m 460 974 q 360 999 400 974 q 321 1081 321 1024 q 373 1185 321 1138 q 501 1256 425 1233 q 631 1161 631 1256 q 582 1043 631 1092 q 460 974 533 994 m 411 1112 q 411 1094 411 1112 q 430 1058 411 1076 q 477 1039 449 1039 q 524 1051 506 1039 q 543 1120 543 1085 q 524 1174 543 1156 q 478 1193 506 1193 q 431 1181 450 1193 q 411 1112 411 1147 z "},"Æ":{"ha":975,"x_min":-29,"x_max":965,"o":"m 167 919 q 552 904 274 904 q 951 925 831 904 l 960 910 q 894 690 901 843 l 871 690 q 849 796 858 729 q 715 825 785 825 q 654 818 689 825 q 626 518 639 715 q 712 513 653 513 q 842 536 771 513 l 849 528 q 828 411 840 504 q 684 425 731 425 q 622 422 638 425 q 619 338 619 375 q 623 263 619 300 q 639 183 626 226 q 749 99 663 99 q 786 231 786 151 q 782 274 786 256 l 792 281 q 965 296 882 282 q 868 115 949 204 q 693 -21 788 26 q 469 52 531 -21 q 408 297 408 125 q 413 421 408 361 q 350 425 385 425 q 282 421 315 425 q 238 85 238 185 q 247 -1 238 47 q -12 -21 99 -1 l -29 -10 l 251 854 q 161 893 210 868 l 167 919 m 301 517 q 364 513 328 513 q 417 515 400 513 q 419 666 419 599 q 415 822 419 733 q 399 825 410 825 q 379 822 388 825 q 340 699 363 799 l 301 517 z "},"Ç":{"ha":647,"x_min":42,"x_max":667,"o":"m 42 325 q 131 73 42 167 q 375 -21 219 -21 q 549 130 472 29 q 647 338 626 231 q 474 322 564 324 l 464 315 q 468 272 468 297 q 431 99 468 165 q 352 124 385 99 q 303 192 319 149 q 281 282 288 236 q 274 403 274 328 q 294 594 274 478 q 350 792 315 711 q 507 711 400 792 l 536 689 q 563 583 549 619 l 586 583 q 608 750 586 657 q 667 893 629 843 l 657 913 q 558 904 631 904 q 429 925 486 904 q 42 325 42 703 m 501 -175 q 500 -194 501 -185 q 332 -326 435 -294 q 192 -292 258 -326 q 244 -192 215 -257 l 251 -189 q 356 -244 289 -244 q 393 -239 381 -244 q 401 -203 401 -228 q 281 -140 401 -140 l 271 -133 l 351 24 l 414 26 l 361 -53 l 367 -58 q 467 -92 433 -58 q 501 -175 501 -125 z "},"È":{"ha":651,"x_min":29,"x_max":653,"o":"m 369 788 q 329 783 350 788 q 321 728 321 763 q 363 573 321 621 q 510 515 406 525 l 501 463 q 326 410 389 463 q 263 250 263 357 q 295 141 263 181 q 388 101 328 101 q 478 124 449 101 q 490 194 490 157 q 468 260 490 232 l 471 271 q 589 342 546 297 q 631 278 631 335 q 546 97 631 181 q 354 -21 461 13 q 122 47 214 -21 q 29 224 29 115 q 109 403 29 332 q 304 486 189 474 l 304 492 q 158 546 218 503 q 99 661 99 589 q 258 824 168 751 q 442 925 349 897 q 653 875 568 925 q 572 679 593 786 l 560 679 q 466 759 510 731 q 369 788 422 788 m 140 1257 q 176 1260 156 1260 q 215 1258 196 1260 q 296 1169 240 1214 q 389 1102 351 1124 q 499 1043 426 1081 l 483 1008 l 103 1114 q 115 1191 103 1138 q 140 1257 128 1244 z "},"É":{"ha":651,"x_min":29,"x_max":743,"o":"m 369 788 q 329 783 350 788 q 321 728 321 763 q 363 573 321 621 q 510 515 406 525 l 501 463 q 326 410 389 463 q 263 250 263 357 q 295 141 263 181 q 388 101 328 101 q 478 124 449 101 q 490 194 490 157 q 468 260 490 232 l 471 271 q 589 342 546 297 q 631 278 631 335 q 546 97 631 181 q 354 -21 461 13 q 122 47 214 -21 q 29 224 29 115 q 109 403 29 332 q 304 486 189 474 l 304 492 q 158 546 218 503 q 99 661 99 589 q 258 824 168 751 q 442 925 349 897 q 653 875 568 925 q 572 679 593 786 l 560 679 q 466 759 510 731 q 369 788 422 788 m 631 1258 q 670 1260 650 1260 q 706 1257 690 1260 q 731 1191 718 1244 q 743 1114 743 1138 l 363 1008 l 347 1043 q 457 1102 419 1081 q 550 1169 494 1124 q 631 1258 606 1214 z "},"Ê":{"ha":651,"x_min":29,"x_max":724,"o":"m 369 788 q 329 783 350 788 q 321 728 321 763 q 363 573 321 621 q 510 515 406 525 l 501 463 q 326 410 389 463 q 263 250 263 357 q 295 141 263 181 q 388 101 328 101 q 478 124 449 101 q 490 194 490 157 q 468 260 490 232 l 471 271 q 589 342 546 297 q 631 278 631 335 q 546 97 631 181 q 354 -21 461 13 q 122 47 214 -21 q 29 224 29 115 q 109 403 29 332 q 304 486 189 474 l 304 492 q 158 546 218 503 q 99 661 99 589 q 258 824 168 751 q 442 925 349 897 q 653 875 568 925 q 572 679 593 786 l 560 679 q 466 759 510 731 q 369 788 422 788 m 708 1008 l 422 1092 l 164 1008 l 149 1043 q 418 1258 354 1150 l 482 1258 q 724 1043 558 1129 l 708 1008 z "},"Ë":{"ha":651,"x_min":29,"x_max":704,"o":"m 369 788 q 329 783 350 788 q 321 728 321 763 q 363 573 321 621 q 510 515 406 525 l 501 463 q 326 410 389 463 q 263 250 263 357 q 295 141 263 181 q 388 101 328 101 q 478 124 449 101 q 490 194 490 157 q 468 260 490 232 l 471 271 q 589 342 546 297 q 631 278 631 335 q 546 97 631 181 q 354 -21 461 13 q 122 47 214 -21 q 29 224 29 115 q 109 403 29 332 q 304 486 189 474 l 304 492 q 158 546 218 503 q 99 661 99 589 q 258 824 168 751 q 442 925 349 897 q 653 875 568 925 q 572 679 593 786 l 560 679 q 466 759 510 731 q 369 788 422 788 m 397 1131 q 335 1054 376 1099 q 265 989 294 1010 q 161 1131 210 1031 q 217 1193 176 1158 q 290 1244 257 1228 q 397 1131 344 1210 m 704 1131 q 642 1054 683 1099 q 572 989 601 1010 q 468 1131 517 1031 q 524 1193 483 1158 q 597 1244 564 1228 q 704 1131 651 1210 z "},"Ì":{"ha":454,"x_min":-82,"x_max":382,"o":"m 382 915 q 344 629 361 831 q 328 261 328 428 q 349 0 328 94 q 89 -21 164 -6 l 81 -14 q 115 264 100 68 q 129 617 129 460 q 122 856 129 774 q 43 879 75 864 l 44 904 q 374 922 254 904 l 382 915 m -44 1257 q -9 1260 -29 1260 q 31 1258 11 1260 q 111 1169 56 1214 q 204 1102 167 1124 q 314 1043 242 1081 l 299 1008 l -82 1114 q -69 1191 -82 1138 q -44 1257 -57 1244 z "},"Í":{"ha":454,"x_min":43,"x_max":558,"o":"m 382 915 q 344 629 361 831 q 328 261 328 428 q 349 0 328 94 q 89 -21 164 -6 l 81 -14 q 115 264 100 68 q 129 617 129 460 q 122 856 129 774 q 43 879 75 864 l 44 904 q 374 922 254 904 l 382 915 m 446 1258 q 485 1260 465 1260 q 521 1257 506 1260 q 546 1191 533 1244 q 558 1114 558 1138 l 178 1008 l 163 1043 q 272 1102 235 1081 q 365 1169 310 1124 q 446 1258 421 1214 z "},"Î":{"ha":454,"x_min":-36,"x_max":539,"o":"m 382 915 q 344 629 361 831 q 328 261 328 428 q 349 0 328 94 q 89 -21 164 -6 l 81 -14 q 115 264 100 68 q 129 617 129 460 q 122 856 129 774 q 43 879 75 864 l 44 904 q 374 922 254 904 l 382 915 m 524 1008 l 238 1092 l -21 1008 l -36 1043 q 233 1258 169 1150 l 297 1258 q 539 1043 374 1129 l 524 1008 z "},"Ï":{"ha":454,"x_min":-24,"x_max":519,"o":"m 382 915 q 344 629 361 831 q 328 261 328 428 q 349 0 328 94 q 89 -21 164 -6 l 81 -14 q 115 264 100 68 q 129 617 129 460 q 122 856 129 774 q 43 879 75 864 l 44 904 q 374 922 254 904 l 382 915 m 213 1131 q 151 1054 192 1099 q 81 989 110 1010 q -24 1131 25 1031 q 32 1193 -8 1158 q 106 1244 72 1228 q 213 1131 160 1210 m 519 1131 q 458 1054 499 1099 q 388 989 417 1010 q 283 1131 332 1031 q 339 1193 299 1158 q 413 1244 379 1228 q 519 1131 467 1210 z "},"Ð":{"ha":836,"x_min":10,"x_max":794,"o":"m 49 904 l 429 919 q 708 827 622 919 q 794 534 794 735 q 671 183 794 333 q 346 -21 547 33 l 303 -10 q 158 15 207 15 q 82 10 110 15 l 74 28 q 113 138 103 58 q 133 431 126 271 l 21 421 l 10 429 q 58 497 42 458 l 135 497 q 138 686 138 592 q 126 856 138 781 q 47 879 79 864 l 49 904 m 344 450 q 342 283 342 383 q 349 114 342 183 q 422 101 369 101 q 508 131 475 101 q 551 285 536 189 q 567 445 567 382 q 566 533 567 508 q 563 602 565 557 q 555 675 560 647 q 539 738 550 703 q 513 792 528 772 q 473 825 497 811 q 418 839 449 839 q 367 831 388 839 q 347 513 354 692 q 493 532 435 521 l 501 525 q 467 461 483 497 l 344 450 z "},"Ñ":{"ha":867,"x_min":36,"x_max":813,"o":"m 813 918 q 778 648 793 833 q 763 292 763 463 q 783 0 763 122 q 714 -4 775 -1 q 525 -18 543 -12 l 515 -14 q 292 565 443 236 q 232 674 257 640 l 226 671 q 239 239 226 425 q 263 0 251 53 q 90 -21 146 -7 l 82 -14 q 115 262 101 68 q 129 607 129 456 q 115 856 129 758 q 36 879 67 864 l 38 904 q 401 922 282 904 q 488 621 425 797 q 617 332 551 444 l 664 249 l 668 250 q 656 673 668 496 q 632 904 643 850 q 804 925 750 911 l 813 918 m 639 1156 q 754 1204 707 1156 l 788 1181 q 593 1015 699 1058 q 466 1049 558 1015 q 339 1082 374 1082 q 226 1033 272 1082 l 192 1057 q 295 1153 228 1107 q 431 1222 363 1200 q 639 1156 532 1156 z "},"Ò":{"ha":817,"x_min":42,"x_max":775,"o":"m 543 550 q 417 808 543 808 q 347 793 374 808 q 274 354 274 606 q 305 170 274 246 q 400 94 336 94 q 468 110 442 94 q 524 313 506 185 q 543 550 543 442 m 42 331 q 156 690 42 524 q 450 925 269 857 q 775 574 775 925 q 658 211 775 385 q 368 -21 542 38 q 128 75 214 -21 q 42 331 42 171 m 168 1257 q 203 1260 183 1260 q 243 1258 224 1260 q 324 1169 268 1214 q 417 1102 379 1124 q 526 1043 454 1081 l 511 1008 l 131 1114 q 143 1191 131 1138 q 168 1257 156 1244 z "},"Ó":{"ha":817,"x_min":42,"x_max":775,"o":"m 543 550 q 417 808 543 808 q 347 793 374 808 q 274 354 274 606 q 305 170 274 246 q 400 94 336 94 q 468 110 442 94 q 524 313 506 185 q 543 550 543 442 m 42 331 q 156 690 42 524 q 450 925 269 857 q 775 574 775 925 q 658 211 775 385 q 368 -21 542 38 q 128 75 214 -21 q 42 331 42 171 m 658 1258 q 698 1260 678 1260 q 733 1257 718 1260 q 758 1191 746 1244 q 771 1114 771 1138 l 390 1008 l 375 1043 q 485 1102 447 1081 q 578 1169 522 1124 q 658 1258 633 1214 z "},"Ô":{"ha":817,"x_min":42,"x_max":775,"o":"m 543 550 q 417 808 543 808 q 347 793 374 808 q 274 354 274 606 q 305 170 274 246 q 400 94 336 94 q 468 110 442 94 q 524 313 506 185 q 543 550 543 442 m 42 331 q 156 690 42 524 q 450 925 269 857 q 775 574 775 925 q 658 211 775 385 q 368 -21 542 38 q 128 75 214 -21 q 42 331 42 171 m 736 1008 l 450 1092 l 192 1008 l 176 1043 q 446 1258 382 1150 l 510 1258 q 751 1043 586 1129 l 736 1008 z "},"Õ":{"ha":817,"x_min":42,"x_max":775,"o":"m 543 550 q 417 808 543 808 q 347 793 374 808 q 274 354 274 606 q 305 170 274 246 q 400 94 336 94 q 468 110 442 94 q 524 313 506 185 q 543 550 543 442 m 42 331 q 156 690 42 524 q 450 925 269 857 q 775 574 775 925 q 658 211 775 385 q 368 -21 542 38 q 128 75 214 -21 q 42 331 42 171 m 604 1156 q 719 1204 672 1156 l 753 1181 q 558 1015 664 1058 q 431 1049 524 1015 q 304 1082 339 1082 q 192 1033 238 1082 l 157 1057 q 260 1153 193 1107 q 396 1222 328 1200 q 604 1156 497 1156 z "},"Ö":{"ha":817,"x_min":42,"x_max":775,"o":"m 543 550 q 417 808 543 808 q 347 793 374 808 q 274 354 274 606 q 305 170 274 246 q 400 94 336 94 q 468 110 442 94 q 524 313 506 185 q 543 550 543 442 m 42 331 q 156 690 42 524 q 450 925 269 857 q 775 574 775 925 q 658 211 775 385 q 368 -21 542 38 q 128 75 214 -21 q 42 331 42 171 m 425 1131 q 363 1054 404 1099 q 293 989 322 1010 q 189 1131 238 1031 q 244 1193 204 1158 q 318 1244 285 1228 q 425 1131 372 1210 m 732 1131 q 670 1054 711 1099 q 600 989 629 1010 q 496 1131 544 1031 q 551 1193 511 1158 q 625 1244 592 1228 q 732 1131 679 1210 z "},"×":{"ha":800,"x_min":107,"x_max":693,"o":"m 107 126 q 335 332 253 249 l 121 544 l 193 614 l 204 613 q 404 400 239 574 l 596 611 l 607 613 l 679 546 l 463 335 q 693 128 536 258 l 635 53 l 619 54 l 397 271 l 181 53 l 165 53 l 107 126 z "},"Ø":{"ha":817,"x_min":42,"x_max":775,"o":"m 42 331 q 156 690 42 524 q 450 925 269 857 q 553 914 504 925 q 569 968 560 932 q 583 1017 579 1004 q 649 1029 624 1019 l 654 1024 q 601 900 628 967 q 775 574 775 832 q 658 211 775 385 q 368 -21 542 38 q 254 -4 311 -21 l 213 -121 l 204 -121 q 157 -76 167 -96 l 200 17 q 42 331 42 103 m 468 110 q 524 313 506 185 q 543 541 543 442 q 526 704 543 640 l 314 153 q 394 94 346 94 q 468 110 442 94 m 274 354 q 286 229 274 288 l 497 768 q 419 808 465 808 q 347 793 374 808 q 274 354 274 606 z "},"Ù":{"ha":890,"x_min":43,"x_max":813,"o":"m 118 285 l 139 635 q 122 856 139 785 q 43 879 75 864 l 44 904 q 378 922 258 904 l 386 915 q 351 669 365 825 q 336 414 336 513 q 338 281 336 315 q 346 204 339 247 q 414 111 360 122 q 550 278 501 174 q 560 635 560 439 q 544 901 560 831 q 804 922 731 907 l 813 915 q 777 621 790 815 q 764 249 764 426 q 779 0 764 71 q 538 -21 597 -8 l 528 -14 q 564 174 554 86 l 558 175 q 365 -21 481 31 q 174 58 229 -18 q 118 285 118 135 m 181 1257 q 216 1260 196 1260 q 256 1258 236 1260 q 336 1169 281 1214 q 429 1102 392 1124 q 539 1043 467 1081 l 524 1008 l 143 1114 q 156 1191 143 1138 q 181 1257 168 1244 z "},"Ú":{"ha":890,"x_min":43,"x_max":813,"o":"m 118 285 l 139 635 q 122 856 139 785 q 43 879 75 864 l 44 904 q 378 922 258 904 l 386 915 q 351 669 365 825 q 336 414 336 513 q 338 281 336 315 q 346 204 339 247 q 414 111 360 122 q 550 278 501 174 q 560 635 560 439 q 544 901 560 831 q 804 922 731 907 l 813 915 q 777 621 790 815 q 764 249 764 426 q 779 0 764 71 q 538 -21 597 -8 l 528 -14 q 564 174 554 86 l 558 175 q 365 -21 481 31 q 174 58 229 -18 q 118 285 118 135 m 671 1258 q 710 1260 690 1260 q 746 1257 731 1260 q 771 1191 758 1244 q 783 1114 783 1138 l 403 1008 l 388 1043 q 497 1102 460 1081 q 590 1169 535 1124 q 671 1258 646 1214 z "},"Û":{"ha":890,"x_min":43,"x_max":813,"o":"m 118 285 l 139 635 q 122 856 139 785 q 43 879 75 864 l 44 904 q 378 922 258 904 l 386 915 q 351 669 365 825 q 336 414 336 513 q 338 281 336 315 q 346 204 339 247 q 414 111 360 122 q 550 278 501 174 q 560 635 560 439 q 544 901 560 831 q 804 922 731 907 l 813 915 q 777 621 790 815 q 764 249 764 426 q 779 0 764 71 q 538 -21 597 -8 l 528 -14 q 564 174 554 86 l 558 175 q 365 -21 481 31 q 174 58 229 -18 q 118 285 118 135 m 749 1008 l 463 1092 l 204 1008 l 189 1043 q 458 1258 394 1150 l 522 1258 q 764 1043 599 1129 l 749 1008 z "},"Ü":{"ha":890,"x_min":43,"x_max":813,"o":"m 118 285 l 139 635 q 122 856 139 785 q 43 879 75 864 l 44 904 q 378 922 258 904 l 386 915 q 351 669 365 825 q 336 414 336 513 q 338 281 336 315 q 346 204 339 247 q 414 111 360 122 q 550 278 501 174 q 560 635 560 439 q 544 901 560 831 q 804 922 731 907 l 813 915 q 777 621 790 815 q 764 249 764 426 q 779 0 764 71 q 538 -21 597 -8 l 528 -14 q 564 174 554 86 l 558 175 q 365 -21 481 31 q 174 58 229 -18 q 118 285 118 135 m 438 1131 q 376 1054 417 1099 q 306 989 335 1010 q 201 1131 250 1031 q 257 1193 217 1158 q 331 1244 297 1228 q 438 1131 385 1210 m 744 1131 q 683 1054 724 1099 q 613 989 642 1010 q 508 1131 557 1031 q 564 1193 524 1158 q 638 1244 604 1228 q 744 1131 692 1210 z "},"Ý":{"ha":731,"x_min":-19,"x_max":756,"o":"m 435 515 q 492 683 464 572 q 519 835 519 793 q 513 897 519 878 l 518 904 q 732 925 650 904 q 649 699 726 829 q 476 454 572 569 q 469 226 469 358 q 490 0 469 94 q 231 -21 306 -6 l 222 -14 q 269 408 260 140 q 58 856 143 743 q -19 879 13 864 l -18 904 q 326 924 197 904 l 333 915 q 435 515 346 771 m 643 1260 q 683 1261 663 1261 q 718 1258 703 1261 q 743 1192 731 1246 q 756 1115 756 1139 l 375 1010 l 360 1044 q 469 1103 432 1082 q 563 1170 507 1125 q 643 1260 618 1215 z "},"Þ":{"ha":772,"x_min":43,"x_max":731,"o":"m 353 725 q 456 728 411 728 q 552 719 501 728 q 644 688 603 710 q 731 516 731 642 q 622 311 731 390 q 360 232 514 232 l 364 283 q 496 481 496 283 q 401 647 496 647 q 346 640 374 647 q 328 266 328 438 q 349 0 328 94 q 89 -21 164 -6 l 81 -14 q 115 264 100 68 q 129 617 129 460 q 122 856 129 774 q 43 879 75 864 l 44 904 q 374 922 254 904 l 382 915 q 353 725 365 844 z "},"ß":{"ha":747,"x_min":35,"x_max":746,"o":"m 303 672 l 303 382 q 325 0 303 86 q 107 -281 131 -110 l 76 -278 q 74 -231 74 -260 q 89 -3 74 -203 q 107 349 107 219 q 96 611 107 479 l 39 615 l 35 642 q 97 672 63 660 q 200 871 126 797 q 407 988 274 944 q 643 913 594 988 q 664 831 664 881 q 635 735 664 782 q 574 660 607 688 q 512 611 540 633 q 483 583 483 589 q 614 458 483 539 q 705 385 664 429 q 746 300 746 342 q 666 113 746 211 q 496 -21 586 15 q 410 7 435 7 q 371 0 385 7 l 360 18 q 425 189 407 99 l 436 189 q 492 130 456 160 q 560 92 529 100 q 607 176 607 136 q 467 306 607 218 q 372 388 415 338 q 328 490 328 439 l 328 503 q 426 625 388 550 q 464 772 464 700 q 367 885 464 885 q 319 878 344 885 q 303 672 303 806 z "},"à":{"ha":725,"x_min":31,"x_max":721,"o":"m 31 221 q 126 504 31 375 q 374 701 222 633 q 556 653 454 701 q 614 746 590 715 l 636 739 q 589 347 589 615 q 600 121 589 196 q 699 344 649 182 l 721 339 q 556 -21 671 58 q 429 40 461 -21 q 397 221 397 101 l 419 333 l 396 336 q 334 121 371 213 q 228 -21 297 29 q 83 49 136 -21 q 31 221 31 119 m 286 586 q 246 282 246 422 q 269 122 246 142 q 353 326 318 188 q 388 558 388 465 q 331 596 361 596 q 286 586 300 596 m 124 1035 q 159 1038 139 1038 q 199 1036 179 1038 q 463 788 261 921 l 443 754 l 76 900 q 94 972 78 922 q 124 1035 110 1021 z "},"á":{"ha":725,"x_min":31,"x_max":721,"o":"m 31 221 q 126 504 31 375 q 374 701 222 633 q 556 653 454 701 q 614 746 590 715 l 636 739 q 589 347 589 615 q 600 121 589 196 q 699 344 649 182 l 721 339 q 556 -21 671 58 q 429 40 461 -21 q 397 221 397 101 l 419 333 l 396 336 q 334 121 371 213 q 228 -21 297 29 q 83 49 136 -21 q 31 221 31 119 m 286 586 q 246 282 246 422 q 269 122 246 142 q 353 326 318 188 q 388 558 388 465 q 331 596 361 596 q 286 586 300 596 m 546 1036 q 585 1038 565 1038 q 621 1035 606 1038 q 651 972 635 1021 q 668 900 667 922 l 301 754 l 282 788 q 546 1036 483 921 z "},"â":{"ha":725,"x_min":31,"x_max":721,"o":"m 650 774 l 372 865 l 118 754 l 99 788 q 376 1036 297 913 l 438 1036 q 669 807 503 918 l 650 774 m 31 221 q 126 504 31 375 q 374 701 222 633 q 556 653 454 701 q 614 746 590 715 l 636 739 q 589 347 589 615 q 600 121 589 196 q 699 344 649 182 l 721 339 q 556 -21 671 58 q 429 40 461 -21 q 397 221 397 101 l 419 333 l 396 336 q 334 121 371 213 q 228 -21 297 29 q 83 49 136 -21 q 31 221 31 119 m 286 586 q 246 282 246 422 q 269 122 246 142 q 353 326 318 188 q 388 558 388 465 q 331 596 361 596 q 286 586 300 596 z "},"ã":{"ha":725,"x_min":31,"x_max":721,"o":"m 31 221 q 126 504 31 375 q 374 701 222 633 q 556 653 454 701 q 614 746 590 715 l 636 739 q 589 347 589 615 q 600 121 589 196 q 699 344 649 182 l 721 339 q 556 -21 671 58 q 429 40 461 -21 q 397 221 397 101 l 419 333 l 396 336 q 334 121 371 213 q 228 -21 297 29 q 83 49 136 -21 q 31 221 31 119 m 286 586 q 246 282 246 422 q 269 122 246 142 q 353 326 318 188 q 388 558 388 465 q 331 596 361 596 q 286 586 300 596 m 363 1000 q 538 933 464 933 q 658 982 611 933 l 692 958 q 497 793 603 836 q 384 826 463 793 q 271 860 306 860 q 158 811 204 860 l 124 835 q 227 931 160 885 q 363 1000 294 978 z "},"ä":{"ha":725,"x_min":31,"x_max":721,"o":"m 31 221 q 126 504 31 375 q 374 701 222 633 q 556 653 454 701 q 614 746 590 715 l 636 739 q 589 347 589 615 q 600 121 589 196 q 699 344 649 182 l 721 339 q 556 -21 671 58 q 429 40 461 -21 q 397 221 397 101 l 419 333 l 396 336 q 334 121 371 213 q 228 -21 297 29 q 83 49 136 -21 q 31 221 31 119 m 286 586 q 246 282 246 422 q 269 122 246 142 q 353 326 318 188 q 388 558 388 465 q 331 596 361 596 q 286 586 300 596 m 346 906 q 284 829 325 874 q 214 764 243 785 q 110 906 158 806 q 165 968 125 933 q 239 1019 206 1003 q 346 906 293 985 m 653 906 q 591 829 632 874 q 521 764 550 785 q 417 906 465 806 q 472 968 432 933 q 546 1019 513 1003 q 653 906 600 985 z "},"å":{"ha":725,"x_min":31,"x_max":721,"o":"m 31 221 q 126 504 31 375 q 374 701 222 633 q 556 653 454 701 q 614 746 590 715 l 636 739 q 589 347 589 615 q 600 121 589 196 q 699 344 649 182 l 721 339 q 556 -21 671 58 q 429 40 461 -21 q 397 221 397 101 l 419 333 l 396 336 q 334 121 371 213 q 228 -21 297 29 q 83 49 136 -21 q 31 221 31 119 m 286 586 q 246 282 246 422 q 269 122 246 142 q 353 326 318 188 q 388 558 388 465 q 331 596 361 596 q 286 586 300 596 m 361 754 q 262 779 301 754 q 222 861 222 804 q 274 966 222 918 q 403 1036 326 1014 q 532 942 532 1036 q 483 824 532 872 q 361 754 435 775 m 313 891 q 313 873 313 891 q 331 837 313 856 q 378 818 350 818 q 425 831 406 818 q 444 899 444 864 q 426 953 444 935 q 378 972 407 972 q 332 960 350 972 q 313 891 313 926 z "},"æ":{"ha":808,"x_min":28,"x_max":828,"o":"m 28 193 q 155 506 28 361 q 454 701 282 650 q 567 660 517 689 q 675 701 617 686 l 696 694 q 767 483 729 564 q 824 486 789 486 l 828 465 q 672 399 754 440 q 539 317 589 357 q 653 125 557 133 q 765 310 722 179 l 797 301 q 733 123 779 213 q 625 -19 686 33 q 360 178 410 -19 q 282 66 329 121 q 186 -21 235 11 q 69 51 110 -8 q 28 193 28 111 m 239 175 q 251 129 239 139 q 350 258 307 179 q 376 417 350 332 q 443 556 401 503 l 443 557 q 372 606 422 606 q 347 601 358 606 q 239 175 239 356 m 535 447 q 536 371 535 406 q 608 422 558 390 l 574 606 q 535 447 535 606 z "},"ç":{"ha":483,"x_min":28,"x_max":497,"o":"m 28 232 q 90 52 28 122 q 260 -21 153 -18 q 447 292 396 75 l 414 299 q 307 122 369 182 q 243 299 243 144 q 281 589 243 453 q 326 567 300 588 q 365 525 353 546 q 385 496 365 525 q 400 426 393 453 l 425 426 q 497 665 435 596 l 489 686 q 440 681 474 681 q 342 701 407 681 q 116 497 204 619 q 28 232 28 374 m 386 -175 q 385 -194 386 -185 q 217 -326 319 -294 q 76 -292 143 -326 q 129 -192 100 -257 l 136 -189 q 240 -244 174 -244 q 278 -239 265 -244 q 286 -203 286 -228 q 165 -140 286 -140 l 156 -133 l 236 24 l 299 26 l 246 -53 l 251 -58 q 352 -92 318 -58 q 386 -175 386 -125 z "},"è":{"ha":528,"x_min":22,"x_max":547,"o":"m 244 357 q 244 292 244 339 q 256 190 244 244 q 313 122 268 135 q 394 199 354 150 q 454 296 435 247 l 486 285 q 401 115 461 201 q 272 -21 340 28 q 92 52 156 -21 q 28 239 28 125 q 84 456 28 353 q 235 626 140 558 q 436 701 331 694 l 456 692 q 464 611 458 671 q 493 435 475 497 q 547 418 522 429 l 547 396 q 244 357 381 396 m 318 421 l 318 617 q 266 535 285 611 q 246 399 247 458 q 318 421 281 413 m 69 1035 q 105 1038 85 1038 q 144 1036 125 1038 q 408 788 207 921 l 389 754 l 22 900 q 40 972 24 922 q 69 1035 56 1021 z "},"é":{"ha":528,"x_min":28,"x_max":614,"o":"m 244 357 q 244 292 244 339 q 256 190 244 244 q 313 122 268 135 q 394 199 354 150 q 454 296 435 247 l 486 285 q 401 115 461 201 q 272 -21 340 28 q 92 52 156 -21 q 28 239 28 125 q 84 456 28 353 q 235 626 140 558 q 436 701 331 694 l 456 692 q 464 611 458 671 q 493 435 475 497 q 547 418 522 429 l 547 396 q 244 357 381 396 m 318 421 l 318 617 q 266 535 285 611 q 246 399 247 458 q 318 421 281 413 m 492 1036 q 531 1038 511 1038 q 567 1035 551 1038 q 597 972 581 1021 q 614 900 613 922 l 247 754 l 228 788 q 492 1036 429 921 z "},"ê":{"ha":528,"x_min":28,"x_max":619,"o":"m 244 357 q 244 292 244 339 q 256 190 244 244 q 313 122 268 135 q 394 199 354 150 q 454 296 435 247 l 486 285 q 401 115 461 201 q 272 -21 340 28 q 92 52 156 -21 q 28 239 28 125 q 84 456 28 353 q 235 626 140 558 q 436 701 331 694 l 456 692 q 464 611 458 671 q 493 435 475 497 q 547 418 522 429 l 547 396 q 244 357 381 396 m 318 421 l 318 617 q 266 535 285 611 q 246 399 247 458 q 318 421 281 413 m 600 754 l 318 865 l 64 754 l 44 788 q 322 1036 243 913 l 383 1036 q 619 788 463 892 l 600 754 z "},"ë":{"ha":528,"x_min":28,"x_max":599,"o":"m 244 357 q 244 292 244 339 q 256 190 244 244 q 313 122 268 135 q 394 199 354 150 q 454 296 435 247 l 486 285 q 401 115 461 201 q 272 -21 340 28 q 92 52 156 -21 q 28 239 28 125 q 84 456 28 353 q 235 626 140 558 q 436 701 331 694 l 456 692 q 464 611 458 671 q 493 435 475 497 q 547 418 522 429 l 547 396 q 244 357 381 396 m 318 421 l 318 617 q 266 535 285 611 q 246 399 247 458 q 318 421 281 413 m 292 906 q 230 829 271 874 q 160 764 189 785 q 56 906 104 806 q 111 968 71 933 q 185 1019 151 1003 q 292 906 239 985 m 599 906 q 537 829 578 874 q 467 764 496 785 q 363 906 411 806 q 418 968 378 933 q 492 1019 458 1003 q 599 906 546 985 z "},"ì":{"ha":415,"x_min":-101,"x_max":408,"o":"m 10 681 q 336 701 224 681 l 346 683 q 303 482 319 625 q 286 247 286 339 q 288 121 286 156 q 386 344 336 182 l 408 339 q 243 -21 358 58 q 117 20 154 -21 q 79 153 79 61 q 89 331 79 189 q 99 535 99 474 q 94 632 99 597 q 10 656 35 644 l 10 681 m -54 1035 q -19 1038 -39 1038 q 21 1036 1 1038 q 285 788 83 921 l 265 754 l -101 900 q -84 972 -100 922 q -54 1035 -68 1021 z "},"í":{"ha":415,"x_min":10,"x_max":490,"o":"m 10 681 q 336 701 224 681 l 346 683 q 303 482 319 625 q 286 247 286 339 q 288 121 286 156 q 386 344 336 182 l 408 339 q 243 -21 358 58 q 117 20 154 -21 q 79 153 79 61 q 89 331 79 189 q 99 535 99 474 q 94 632 99 597 q 10 656 35 644 l 10 681 m 368 1036 q 408 1038 388 1038 q 443 1035 428 1038 q 473 972 457 1021 q 490 900 489 922 l 124 754 l 104 788 q 368 1036 306 921 z "},"î":{"ha":415,"x_min":-79,"x_max":496,"o":"m 10 681 q 336 701 224 681 l 346 683 q 303 482 319 625 q 286 247 286 339 q 288 121 286 156 q 386 344 336 182 l 408 339 q 243 -21 358 58 q 117 20 154 -21 q 79 153 79 61 q 89 331 79 189 q 99 535 99 474 q 94 632 99 597 q 10 656 35 644 l 10 681 m 476 754 l 194 865 l -60 754 l -79 788 q 199 1036 119 913 l 260 1036 q 496 788 339 892 l 476 754 z "},"ï":{"ha":415,"x_min":-68,"x_max":475,"o":"m 10 681 q 336 701 224 681 l 346 683 q 303 482 319 625 q 286 247 286 339 q 288 121 286 156 q 386 344 336 182 l 408 339 q 243 -21 358 58 q 117 20 154 -21 q 79 153 79 61 q 89 331 79 189 q 99 535 99 474 q 94 632 99 597 q 10 656 35 644 l 10 681 m 168 906 q 106 829 147 874 q 36 764 65 785 q -68 906 -19 806 q -12 968 -53 933 q 61 1019 28 1003 q 168 906 115 985 m 475 906 q 413 829 454 874 q 343 764 372 785 q 239 906 288 806 q 294 968 254 933 q 368 1019 335 1003 q 475 906 422 985 z "},"ð":{"ha":615,"x_min":28,"x_max":588,"o":"m 165 700 l 285 778 q 74 964 201 892 l 92 992 q 376 844 257 940 l 394 858 q 451 903 406 867 q 515 951 497 939 l 525 949 q 542 890 531 915 l 421 804 q 588 401 588 640 q 504 142 588 251 q 275 -21 421 32 q 90 43 151 -21 q 28 203 28 107 q 106 439 28 342 q 325 582 185 536 q 401 494 365 560 l 410 494 q 318 731 383 625 l 176 629 l 164 632 q 168 673 168 657 q 165 700 168 689 m 383 374 q 358 458 378 417 q 312 500 339 500 q 269 489 285 500 q 244 226 244 378 q 303 75 244 75 q 342 85 324 75 q 383 374 383 211 z "},"ñ":{"ha":753,"x_min":7,"x_max":746,"o":"m 658 538 q 633 326 658 464 q 607 114 607 189 q 724 344 674 189 l 746 339 q 560 -21 696 69 q 407 106 407 -21 q 428 288 407 157 q 450 482 450 419 q 436 558 450 544 q 343 351 385 501 q 301 130 301 201 q 313 0 301 58 q 85 -21 194 0 l 76 -14 q 104 311 104 82 q 92 632 104 540 q 7 656 32 644 l 7 681 q 326 701 214 681 l 336 683 q 303 464 303 597 q 278 353 294 417 l 300 351 q 501 701 360 624 q 658 538 658 701 m 413 1000 q 588 933 514 933 q 708 982 661 933 l 742 958 q 547 793 653 836 q 434 826 513 793 q 321 860 356 860 q 208 811 254 860 l 174 835 q 277 931 210 885 q 413 1000 344 978 z "},"ò":{"ha":615,"x_min":28,"x_max":588,"o":"m 346 582 q 313 599 332 599 q 276 592 294 599 q 242 269 242 453 q 269 97 242 129 q 300 82 282 82 q 336 89 318 82 q 372 390 372 229 q 346 582 372 550 m 275 -21 q 92 53 157 -21 q 28 257 28 126 q 117 512 28 388 q 339 701 207 636 q 526 631 464 701 q 588 426 588 561 q 498 167 588 292 q 275 -21 408 42 m 90 1035 q 126 1038 106 1038 q 165 1036 146 1038 q 429 788 228 921 l 410 754 l 43 900 q 60 972 44 922 q 90 1035 76 1021 z "},"ó":{"ha":615,"x_min":28,"x_max":635,"o":"m 346 582 q 313 599 332 599 q 276 592 294 599 q 242 269 242 453 q 269 97 242 129 q 300 82 282 82 q 336 89 318 82 q 372 390 372 229 q 346 582 372 550 m 275 -21 q 92 53 157 -21 q 28 257 28 126 q 117 512 28 388 q 339 701 207 636 q 526 631 464 701 q 588 426 588 561 q 498 167 588 292 q 275 -21 408 42 m 513 1036 q 552 1038 532 1038 q 588 1035 572 1038 q 617 972 601 1021 q 635 900 633 922 l 268 754 l 249 788 q 513 1036 450 921 z "},"ô":{"ha":615,"x_min":28,"x_max":640,"o":"m 346 582 q 313 599 332 599 q 276 592 294 599 q 242 269 242 453 q 269 97 242 129 q 300 82 282 82 q 336 89 318 82 q 372 390 372 229 q 346 582 372 550 m 275 -21 q 92 53 157 -21 q 28 257 28 126 q 117 512 28 388 q 339 701 207 636 q 526 631 464 701 q 588 426 588 561 q 498 167 588 292 q 275 -21 408 42 m 621 754 l 339 865 l 85 754 l 65 788 q 343 1036 264 913 l 404 1036 q 640 788 483 892 l 621 754 z "},"õ":{"ha":615,"x_min":28,"x_max":658,"o":"m 346 582 q 313 599 332 599 q 276 592 294 599 q 242 269 242 453 q 269 97 242 129 q 300 82 282 82 q 336 89 318 82 q 372 390 372 229 q 346 582 372 550 m 275 -21 q 92 53 157 -21 q 28 257 28 126 q 117 512 28 388 q 339 701 207 636 q 526 631 464 701 q 588 426 588 561 q 498 167 588 292 q 275 -21 408 42 m 329 1000 q 504 933 431 933 q 625 982 578 933 l 658 958 q 464 793 569 836 q 351 826 429 793 q 238 860 272 860 q 125 811 171 860 l 90 835 q 194 931 126 885 q 329 1000 261 978 z "},"ö":{"ha":615,"x_min":28,"x_max":619,"o":"m 346 582 q 313 599 332 599 q 276 592 294 599 q 242 269 242 453 q 269 97 242 129 q 300 82 282 82 q 336 89 318 82 q 372 390 372 229 q 346 582 372 550 m 275 -21 q 92 53 157 -21 q 28 257 28 126 q 117 512 28 388 q 339 701 207 636 q 526 631 464 701 q 588 426 588 561 q 498 167 588 292 q 275 -21 408 42 m 313 906 q 251 829 292 874 q 181 764 210 785 q 76 906 125 806 q 132 968 92 933 q 206 1019 172 1003 q 313 906 260 985 m 619 906 q 558 829 599 874 q 488 764 517 785 q 383 906 432 806 q 439 968 399 933 q 513 1019 479 1003 q 619 906 567 985 z "},"÷":{"ha":800,"x_min":79,"x_max":722,"o":"m 453 595 q 465 583 453 595 q 476 542 476 571 q 453 488 476 513 q 401 463 429 463 q 347 488 372 463 q 322 542 322 514 q 347 595 322 571 q 401 619 372 619 q 453 595 429 619 m 453 202 q 465 190 453 202 q 476 149 476 178 q 453 94 476 119 q 401 69 429 69 q 347 95 372 69 q 322 149 322 121 q 347 202 322 178 q 401 226 372 226 q 453 202 429 226 m 92 403 q 494 390 328 390 q 714 394 660 390 l 722 386 l 710 301 l 90 301 l 79 311 l 92 403 z "},"ø":{"ha":615,"x_min":28,"x_max":588,"o":"m 28 250 q 117 512 28 388 q 339 701 207 636 q 414 693 381 701 q 444 792 426 728 q 499 803 478 794 l 504 797 q 454 681 485 758 q 588 431 588 625 q 498 167 588 292 q 275 -21 408 42 q 189 -8 226 -21 l 146 -132 l 139 -132 q 99 -96 107 -112 l 147 8 q 28 250 28 74 m 372 411 q 371 465 372 446 l 249 146 q 303 82 263 82 q 336 89 318 82 q 372 411 372 229 m 242 269 l 242 250 l 360 553 q 310 599 343 599 q 276 592 294 599 q 242 269 242 453 z "},"ù":{"ha":760,"x_min":10,"x_max":753,"o":"m 429 219 q 451 333 439 275 l 428 336 q 314 42 379 119 q 238 -21 281 3 q 112 32 157 -21 q 67 171 67 85 q 82 360 67 225 q 97 549 97 494 q 94 632 97 604 q 10 656 35 644 l 10 681 q 336 701 224 681 l 346 683 q 293 467 311 600 q 275 232 275 333 q 303 122 275 131 q 386 331 349 182 q 424 551 424 479 q 413 681 424 622 q 640 701 531 681 l 649 694 q 621 339 621 599 q 632 121 621 204 q 731 344 681 182 l 753 339 q 588 -21 703 58 q 461 40 493 -21 q 429 219 429 100 m 129 1035 q 165 1038 144 1038 q 204 1036 185 1038 q 468 788 267 921 l 449 754 l 82 900 q 99 972 83 922 q 129 1035 115 1021 z "},"ú":{"ha":760,"x_min":10,"x_max":753,"o":"m 429 219 q 451 333 439 275 l 428 336 q 314 42 379 119 q 238 -21 281 3 q 112 32 157 -21 q 67 171 67 85 q 82 360 67 225 q 97 549 97 494 q 94 632 97 604 q 10 656 35 644 l 10 681 q 336 701 224 681 l 346 683 q 293 467 311 600 q 275 232 275 333 q 303 122 275 131 q 386 331 349 182 q 424 551 424 479 q 413 681 424 622 q 640 701 531 681 l 649 694 q 621 339 621 599 q 632 121 621 204 q 731 344 681 182 l 753 339 q 588 -21 703 58 q 461 40 493 -21 q 429 219 429 100 m 551 1036 q 591 1038 571 1038 q 626 1035 611 1038 q 656 972 640 1021 q 674 900 672 922 l 307 754 l 288 788 q 551 1036 489 921 z "},"û":{"ha":760,"x_min":10,"x_max":753,"o":"m 429 219 q 451 333 439 275 l 428 336 q 314 42 379 119 q 238 -21 281 3 q 112 32 157 -21 q 67 171 67 85 q 82 360 67 225 q 97 549 97 494 q 94 632 97 604 q 10 656 35 644 l 10 681 q 336 701 224 681 l 346 683 q 293 467 311 600 q 275 232 275 333 q 303 122 275 131 q 386 331 349 182 q 424 551 424 479 q 413 681 424 622 q 640 701 531 681 l 649 694 q 621 339 621 599 q 632 121 621 204 q 731 344 681 182 l 753 339 q 588 -21 703 58 q 461 40 493 -21 q 429 219 429 100 m 660 754 l 378 865 l 124 754 l 104 788 q 382 1036 303 913 l 443 1036 q 679 788 522 892 l 660 754 z "},"ü":{"ha":760,"x_min":10,"x_max":753,"o":"m 429 219 q 451 333 439 275 l 428 336 q 314 42 379 119 q 238 -21 281 3 q 112 32 157 -21 q 67 171 67 85 q 82 360 67 225 q 97 549 97 494 q 94 632 97 604 q 10 656 35 644 l 10 681 q 336 701 224 681 l 346 683 q 293 467 311 600 q 275 232 275 333 q 303 122 275 131 q 386 331 349 182 q 424 551 424 479 q 413 681 424 622 q 640 701 531 681 l 649 694 q 621 339 621 599 q 632 121 621 204 q 731 344 681 182 l 753 339 q 588 -21 703 58 q 461 40 493 -21 q 429 219 429 100 m 351 906 q 290 829 331 874 q 219 764 249 785 q 115 906 164 806 q 171 968 131 933 q 244 1019 211 1003 q 351 906 299 985 m 658 906 q 597 829 638 874 q 526 764 556 785 q 422 906 471 806 q 478 968 438 933 q 551 1019 518 1003 q 658 906 606 985 z "},"ý":{"ha":711,"x_min":-96,"x_max":682,"o":"m 650 694 q 622 340 622 599 q 682 -90 622 81 q 500 -299 590 -154 l 457 -278 q 287 -216 385 -243 q 117 -189 189 -189 q -74 -271 4 -189 l -96 -256 q 217 -19 3 -125 q 107 39 146 -12 q 68 158 68 90 q 83 360 68 225 q 99 549 99 494 q 96 632 99 604 q 11 656 36 644 l 11 681 q 338 701 225 681 l 347 683 q 294 467 313 600 q 276 232 276 333 q 304 122 276 131 q 388 331 350 182 q 425 551 425 479 q 414 681 425 622 q 642 701 532 681 l 650 694 m 431 219 q 453 333 440 275 l 429 336 q 351 99 399 188 q 232 -44 304 10 q 385 -69 278 -44 q 537 -94 493 -94 q 599 -79 581 -94 q 478 49 525 -35 q 431 219 431 133 m 554 1036 q 594 1038 574 1038 q 629 1035 614 1038 q 659 972 643 1021 q 676 900 675 922 l 310 754 l 290 788 q 554 1036 492 921 z "},"þ":{"ha":701,"x_min":10,"x_max":674,"o":"m 10 911 q 372 976 219 911 l 383 958 q 317 679 322 861 l 304 464 l 279 353 l 301 351 q 371 568 329 479 q 493 701 413 657 q 674 496 674 685 q 581 194 674 328 q 329 -21 489 60 l 285 -10 q 308 -185 286 -33 l 317 -236 q 47 -299 171 -250 l 35 -278 q 88 -178 75 -214 q 103 -79 101 -143 l 106 15 q 49 4 72 13 l 35 19 q 107 121 56 60 l 110 572 q 93 863 110 756 q 10 886 47 871 l 10 911 m 304 119 q 370 85 344 85 q 403 90 396 85 q 439 267 424 156 q 454 458 454 378 q 428 558 454 538 q 347 373 379 493 q 304 139 315 253 l 304 119 z "},"ÿ":{"ha":711,"x_min":-96,"x_max":682,"o":"m 650 694 q 622 340 622 599 q 682 -90 622 81 q 500 -299 590 -154 l 457 -278 q 287 -216 385 -243 q 117 -189 189 -189 q -74 -271 4 -189 l -96 -256 q 217 -19 3 -125 q 107 39 146 -12 q 68 158 68 90 q 83 360 68 225 q 99 549 99 494 q 96 632 99 604 q 11 656 36 644 l 11 681 q 338 701 225 681 l 347 683 q 294 467 313 600 q 276 232 276 333 q 304 122 276 131 q 388 331 350 182 q 425 551 425 479 q 414 681 425 622 q 642 701 532 681 l 650 694 m 431 219 q 453 333 440 275 l 429 336 q 351 99 399 188 q 232 -44 304 10 q 385 -69 278 -44 q 537 -94 493 -94 q 599 -79 581 -94 q 478 49 525 -35 q 431 219 431 133 m 354 906 q 292 829 333 874 q 222 764 251 785 q 118 906 167 806 q 174 968 133 933 q 247 1019 214 1003 q 354 906 301 985 m 661 906 q 599 829 640 874 q 529 764 558 785 q 425 906 474 806 q 481 968 440 933 q 554 1019 521 1003 q 661 906 608 985 z "},"ħ":{"ha":742,"x_min":-36,"x_max":735,"o":"m 647 538 q 622 326 647 464 q 596 114 596 189 q 713 344 663 189 l 735 339 q 549 -21 685 69 q 396 106 396 -21 q 417 288 396 157 q 439 482 439 419 q 425 558 439 544 q 332 351 374 501 q 290 130 290 201 q 301 0 290 58 q 74 -21 183 0 l 65 -14 q 93 355 93 82 q 88 729 93 628 l -25 719 l -36 728 q 13 796 -4 757 q 83 797 61 796 q 50 972 74 910 l 76 982 q 175 856 99 960 q 294 965 222 915 q 440 1042 367 1015 l 453 1019 q 313 811 346 951 l 379 817 q 526 836 469 825 l 535 829 q 500 765 517 801 l 303 747 q 297 660 297 710 l 292 464 q 267 353 283 417 l 289 351 q 490 701 349 624 q 647 538 647 701 z "},"Ĩ":{"ha":454,"x_min":-56,"x_max":540,"o":"m 382 915 q 344 629 361 831 q 328 261 328 428 q 349 0 328 94 q 89 -21 164 -6 l 81 -14 q 115 264 100 68 q 129 617 129 460 q 122 856 129 774 q 43 879 75 864 l 44 904 q 374 922 254 904 l 382 915 m 392 1156 q 507 1204 460 1156 l 540 1181 q 346 1015 451 1058 q 219 1049 311 1015 q 92 1082 126 1082 q -21 1033 25 1082 l -56 1057 q 48 1153 -19 1107 q 183 1222 115 1200 q 392 1156 285 1156 z "},"ĩ":{"ha":415,"x_min":-54,"x_max":514,"o":"m 10 681 q 336 701 224 681 l 346 683 q 303 482 319 625 q 286 247 286 339 q 288 121 286 156 q 386 344 336 182 l 408 339 q 243 -21 358 58 q 117 20 154 -21 q 79 153 79 61 q 89 331 79 189 q 99 535 99 474 q 94 632 99 597 q 10 656 35 644 l 10 681 m 185 1000 q 360 933 286 933 q 481 982 433 933 l 514 958 q 319 793 425 836 q 206 826 285 793 q 93 860 128 860 q -19 811 26 860 l -54 835 q 49 931 -18 885 q 185 1000 117 978 z "},"ı":{"ha":415,"x_min":10,"x_max":408,"o":"m 346 683 q 303 482 319 625 q 286 247 286 339 q 288 121 286 156 q 386 344 336 182 l 408 339 q 243 -21 358 58 q 117 20 154 -21 q 79 153 79 61 q 89 331 79 189 q 99 535 99 474 q 94 632 99 597 q 10 656 35 644 l 10 681 q 336 701 224 681 l 346 683 z "},"Ĳ":{"ha":906,"x_min":43,"x_max":833,"o":"m 382 915 q 344 629 361 831 q 328 261 328 428 q 349 0 328 94 q 89 -21 164 -6 l 81 -14 q 115 264 100 68 q 129 617 129 460 q 122 856 129 774 q 43 879 75 864 l 44 904 q 374 922 254 904 l 382 915 m 833 915 q 795 615 811 813 q 779 272 779 418 q 807 18 779 125 q 628 -147 735 -68 q 408 -279 521 -226 l 392 -257 q 519 -58 483 -169 q 581 635 581 132 q 574 856 581 774 q 494 879 525 864 l 496 904 q 825 922 706 904 l 833 915 z "},"ĳ":{"ha":799,"x_min":10,"x_max":743,"o":"m 10 681 q 336 701 224 681 l 346 683 q 303 482 319 625 q 286 247 286 339 q 288 121 286 156 q 386 344 336 182 l 408 339 q 243 -21 358 58 q 117 20 154 -21 q 79 153 79 61 q 89 331 79 189 q 99 535 99 474 q 94 632 99 597 q 10 656 35 644 l 10 681 m 340 896 q 278 819 319 864 q 208 754 238 775 q 104 896 153 796 q 160 958 119 924 q 233 1010 200 993 q 340 896 288 975 m 706 382 q 728 0 706 86 q 510 -281 533 -110 l 479 -278 q 476 -231 476 -260 q 492 -3 476 -203 q 510 369 510 218 q 497 632 510 519 q 413 656 438 644 l 413 681 q 732 701 619 681 l 742 683 q 716 554 726 650 q 706 382 706 458 m 743 896 q 681 819 722 864 q 611 754 640 775 q 507 896 556 796 q 563 958 522 924 q 636 1010 603 993 q 743 896 690 975 z "},"Ĵ":{"ha":451,"x_min":-62,"x_max":536,"o":"m 379 915 q 341 615 357 813 q 325 272 325 418 q 353 18 325 125 q 174 -147 281 -68 q -46 -279 67 -226 l -62 -257 q 65 -58 29 -169 q 126 635 126 132 q 119 856 126 774 q 40 879 71 864 l 42 904 q 371 922 251 904 l 379 915 m 521 1008 l 235 1092 l -24 1008 l -39 1043 q 231 1258 167 1150 l 294 1258 q 536 1043 371 1129 l 521 1008 z "},"ĵ":{"ha":382,"x_min":-104,"x_max":471,"o":"m 289 382 q 311 0 289 86 q 93 -281 117 -110 l 63 -278 q 60 -231 60 -260 q 75 -3 60 -203 q 93 369 93 218 q 81 632 93 519 q -4 656 21 644 l -4 681 q 315 701 203 681 l 325 683 q 299 554 310 650 q 289 382 289 458 m 451 754 l 169 865 l -85 754 l -104 788 q 174 1036 94 913 l 235 1036 q 471 788 314 892 l 451 754 z "},"ķ":{"ha":739,"x_min":-7,"x_max":738,"o":"m 93 421 l 93 572 q 76 863 93 756 q -7 886 31 871 l -7 911 q 356 976 203 911 l 367 958 q 300 679 306 861 l 294 464 l 269 353 l 292 351 q 493 701 351 624 q 650 543 650 701 q 525 353 650 419 q 604 128 567 150 q 715 344 669 201 l 738 339 q 551 -21 688 69 q 445 9 482 -21 q 397 106 408 39 q 371 317 379 214 l 371 331 q 423 356 406 333 q 444 403 440 378 q 447 483 447 428 q 428 558 447 539 q 335 351 376 501 q 293 130 293 201 q 304 0 293 58 q 74 -21 183 0 l 65 -14 q 93 421 93 82 m 457 -144 q 385 -265 446 -212 q 242 -349 324 -318 l 224 -321 q 307 -228 290 -275 q 257 -144 272 -183 q 303 -92 268 -121 q 365 -47 338 -62 q 457 -144 411 -75 z "},"ĸ":{"ha":717,"x_min":7,"x_max":715,"o":"m 336 325 q 301 139 301 219 q 313 0 301 58 q 85 -21 194 0 l 76 -14 q 104 311 104 82 q 92 632 104 540 q 7 656 32 644 l 7 681 q 326 701 214 681 l 336 683 q 303 464 303 597 q 278 353 294 417 l 300 351 q 388 549 322 446 q 528 701 453 651 q 615 683 554 692 q 707 675 675 675 l 715 654 q 647 532 681 608 q 611 403 614 456 l 586 403 q 571 472 579 429 q 467 547 561 490 q 431 504 449 529 l 464 414 q 594 142 558 163 q 688 344 657 235 l 713 339 q 554 -21 660 56 q 456 8 489 -21 q 396 117 424 38 q 336 325 368 197 z "},"Ŀ":{"ha":610,"x_min":43,"x_max":619,"o":"m 382 915 q 344 635 361 829 q 328 305 328 440 q 339 92 328 169 q 449 86 375 86 q 596 113 524 86 l 603 104 q 579 -18 583 44 q 332 0 475 0 q 89 -21 189 0 l 81 -14 q 115 264 100 68 q 129 617 129 460 q 122 856 129 774 q 43 879 75 864 l 44 904 q 374 922 254 904 l 382 915 m 619 504 q 558 428 599 472 q 488 363 517 383 q 383 504 432 404 q 439 567 399 532 q 513 618 479 601 q 619 504 567 583 z "},"ŀ":{"ha":604,"x_min":-1,"x_max":575,"o":"m 278 164 q 278 121 278 142 q 376 344 326 182 l 399 339 q 233 -21 349 58 q 107 20 144 -21 q 69 138 69 61 q 84 396 69 215 q 99 659 99 576 q 82 863 99 742 q -1 886 36 871 l -1 911 q 187 928 83 911 q 365 976 290 944 l 376 958 q 298 614 318 867 q 278 164 278 361 m 575 575 q 513 499 554 543 q 443 433 472 454 q 339 575 388 475 q 394 638 354 603 q 468 689 435 672 q 575 575 522 654 z "},"Ł":{"ha":607,"x_min":43,"x_max":617,"o":"m 486 642 l 496 638 q 501 578 496 601 l 56 363 l 43 368 q 57 435 57 404 q 333 561 217 500 q 486 642 449 622 m 396 915 q 358 635 375 829 q 342 305 342 440 q 353 92 342 169 q 463 86 389 86 q 610 113 538 86 l 617 104 q 593 -18 597 44 q 346 0 489 0 q 103 -21 203 0 l 94 -14 q 128 264 114 68 q 143 617 143 460 q 136 856 143 774 q 57 879 88 864 l 58 904 q 388 922 268 904 l 396 915 z "},"ł":{"ha":436,"x_min":10,"x_max":426,"o":"m 411 621 l 421 617 q 426 557 421 581 l 22 363 l 10 368 q 24 435 24 404 q 274 549 175 497 q 411 621 374 601 m 303 164 q 303 121 303 142 q 401 344 351 182 l 424 339 q 258 -21 374 58 q 132 20 169 -21 q 94 138 94 61 q 109 396 94 215 q 124 659 124 576 q 107 863 124 742 q 24 886 61 871 l 24 911 q 212 928 108 911 q 390 976 315 944 l 401 958 q 323 614 343 867 q 303 164 303 361 z "},"Ń":{"ha":867,"x_min":36,"x_max":813,"o":"m 813 918 q 778 648 793 833 q 763 292 763 463 q 783 0 763 122 q 714 -4 775 -1 q 525 -18 543 -12 l 515 -14 q 292 565 443 236 q 232 674 257 640 l 226 671 q 239 239 226 425 q 263 0 251 53 q 90 -21 146 -7 l 82 -14 q 115 262 101 68 q 129 607 129 456 q 115 856 129 758 q 36 879 67 864 l 38 904 q 401 922 282 904 q 488 621 425 797 q 617 332 551 444 l 664 249 l 668 250 q 656 673 668 496 q 632 904 643 850 q 804 925 750 911 l 813 918 m 693 1258 q 733 1260 713 1260 q 768 1257 753 1260 q 793 1191 781 1244 q 806 1114 806 1138 l 425 1008 l 410 1043 q 519 1102 482 1081 q 613 1169 557 1124 q 693 1258 668 1214 z "},"ń":{"ha":753,"x_min":7,"x_max":746,"o":"m 658 538 q 633 326 658 464 q 607 114 607 189 q 724 344 674 189 l 746 339 q 560 -21 696 69 q 407 106 407 -21 q 428 288 407 157 q 450 482 450 419 q 436 558 450 544 q 343 351 385 501 q 301 130 301 201 q 313 0 301 58 q 85 -21 194 0 l 76 -14 q 104 311 104 82 q 92 632 104 540 q 7 656 32 644 l 7 681 q 326 701 214 681 l 336 683 q 303 464 303 597 q 278 353 294 417 l 300 351 q 501 701 360 624 q 658 538 658 701 m 610 1036 q 649 1038 629 1038 q 685 1035 669 1038 q 715 972 699 1021 q 732 900 731 922 l 365 754 l 346 788 q 610 1036 547 921 z "},"Œ":{"ha":1086,"x_min":42,"x_max":1076,"o":"m 42 331 q 147 692 42 526 q 431 925 251 858 l 433 924 l 432 925 q 749 904 556 904 q 1063 925 942 904 l 1071 910 q 1006 690 1013 843 l 982 690 q 960 796 969 729 q 826 825 896 825 q 765 818 800 825 q 738 518 750 715 q 823 513 764 513 q 953 536 882 513 l 960 528 q 939 411 951 504 q 795 425 842 425 q 733 422 749 425 q 731 338 731 375 q 734 263 731 300 q 750 183 738 226 q 860 99 774 99 q 897 231 897 151 q 893 274 897 256 l 903 281 q 1076 296 993 282 q 979 115 1060 204 q 804 -21 899 26 q 651 6 704 -21 q 568 92 597 32 l 560 92 q 368 -21 490 14 q 128 75 214 -21 q 42 331 42 171 m 508 783 q 423 808 474 808 q 347 793 372 808 q 274 354 274 606 q 313 166 274 233 q 428 99 351 99 q 482 108 461 99 q 514 257 511 150 l 524 604 q 508 783 524 711 z "},"œ":{"ha":865,"x_min":28,"x_max":885,"o":"m 582 357 q 582 292 582 339 q 594 190 582 244 q 650 122 606 135 q 732 199 692 150 q 792 296 772 247 l 824 285 q 738 115 799 201 q 610 -21 678 28 q 415 72 479 -21 l 413 72 q 275 -21 344 11 q 92 53 157 -21 q 28 257 28 126 q 117 512 28 388 q 339 701 207 636 q 543 604 482 701 l 547 604 q 774 701 657 693 l 793 692 q 801 611 796 671 q 831 435 813 497 q 885 418 860 429 l 885 396 q 582 357 718 396 m 346 582 q 313 599 332 599 q 276 592 294 599 q 242 269 242 453 q 269 97 242 129 q 300 82 282 82 q 336 89 318 82 q 372 390 372 229 q 346 582 372 550 m 656 421 l 656 617 q 603 535 622 611 q 583 399 585 458 q 656 421 618 413 z "},"Ŕ":{"ha":821,"x_min":43,"x_max":840,"o":"m 44 904 l 450 919 q 724 817 668 919 q 746 714 746 775 q 572 468 746 550 q 840 0 731 147 q 571 -21 692 -3 l 561 -18 q 498 181 546 54 q 390 424 450 308 l 356 424 l 360 475 q 471 526 431 475 q 511 672 511 576 q 417 839 511 839 q 356 831 385 839 q 328 257 328 636 q 349 0 328 94 q 89 -21 164 -6 l 81 -14 q 115 264 100 68 q 129 617 129 460 q 122 856 129 774 q 43 879 75 864 l 44 904 m 625 1258 q 665 1260 644 1260 q 700 1257 685 1260 q 725 1191 713 1244 q 738 1114 738 1138 l 357 1008 l 342 1043 q 451 1102 414 1081 q 544 1169 489 1124 q 625 1258 600 1214 z "},"Ŗ":{"ha":821,"x_min":43,"x_max":840,"o":"m 44 904 l 450 919 q 724 817 668 919 q 746 714 746 775 q 572 468 746 550 q 840 0 731 147 q 571 -21 692 -3 l 561 -18 q 498 181 546 54 q 390 424 450 308 l 356 424 l 360 475 q 471 526 431 475 q 511 672 511 576 q 417 839 511 839 q 356 831 385 839 q 328 257 328 636 q 349 0 328 94 q 89 -21 164 -6 l 81 -14 q 115 264 100 68 q 129 617 129 460 q 122 856 129 774 q 43 879 75 864 l 44 904 m 543 -144 q 471 -265 532 -212 q 328 -349 410 -318 l 310 -321 q 393 -228 376 -275 q 343 -144 358 -183 q 389 -92 354 -121 q 451 -47 424 -62 q 543 -144 497 -75 z "},"ŗ":{"ha":579,"x_min":7,"x_max":618,"o":"m 425 547 q 340 341 378 481 q 301 130 301 201 q 313 0 301 58 q 85 -21 194 0 l 76 -14 q 104 311 104 82 q 92 632 104 540 q 7 656 32 644 l 7 681 q 326 701 214 681 l 336 683 q 303 464 303 597 q 278 353 294 417 l 300 351 q 369 558 324 460 q 486 701 415 656 q 610 675 553 675 l 618 654 q 567 540 588 614 q 542 403 546 465 l 517 403 q 501 472 510 429 q 425 547 478 513 m 297 -144 q 225 -265 286 -212 q 82 -349 164 -318 l 64 -321 q 147 -228 131 -275 q 97 -144 113 -183 q 143 -92 108 -121 q 206 -47 178 -62 q 297 -144 251 -75 z "},"Ř":{"ha":821,"x_min":43,"x_max":840,"o":"m 44 904 l 450 919 q 724 817 668 919 q 746 714 746 775 q 572 468 746 550 q 840 0 731 147 q 571 -21 692 -3 l 561 -18 q 498 181 546 54 q 390 424 450 308 l 356 424 l 360 475 q 471 526 431 475 q 511 672 511 576 q 417 839 511 839 q 356 831 385 839 q 328 257 328 636 q 349 0 328 94 q 89 -21 164 -6 l 81 -14 q 115 264 100 68 q 129 617 129 460 q 122 856 129 774 q 43 879 75 864 l 44 904 m 158 1247 l 444 1164 l 703 1247 l 718 1213 q 449 997 513 1106 l 385 997 q 143 1213 308 1126 l 158 1247 z "},"ř":{"ha":579,"x_min":7,"x_max":733,"o":"m 425 547 q 340 341 378 481 q 301 130 301 201 q 313 0 301 58 q 85 -21 194 0 l 76 -14 q 104 311 104 82 q 92 632 104 540 q 7 656 32 644 l 7 681 q 326 701 214 681 l 336 683 q 303 464 303 597 q 278 353 294 417 l 300 351 q 369 558 324 460 q 486 701 415 656 q 610 675 553 675 l 618 654 q 567 540 588 614 q 542 403 546 465 l 517 403 q 501 472 510 429 q 425 547 478 513 m 178 1036 l 460 925 l 714 1036 l 733 1003 q 456 754 535 878 l 394 754 q 158 1003 315 899 l 178 1036 z "},"ȷ":{"ha":385,"x_min":10,"x_max":339,"o":"m 303 382 q 325 0 303 86 q 107 -281 131 -110 l 76 -278 q 74 -231 74 -260 q 89 -3 74 -203 q 107 369 107 218 q 94 632 107 519 q 10 656 35 644 l 10 681 q 329 701 217 681 l 339 683 q 313 554 324 650 q 303 382 303 458 z "},"ˆ":{"ha":575,"x_min":0,"x_max":575,"o":"m 556 754 l 274 865 l 19 754 l 0 788 q 278 1036 199 913 l 339 1036 q 575 788 418 892 l 556 754 z "},"ˇ":{"ha":575,"x_min":0,"x_max":575,"o":"m 19 1036 l 301 925 l 556 1036 l 575 1003 q 297 754 376 878 l 236 754 q 0 1003 157 899 l 19 1036 z "},"˚":{"ha":310,"x_min":0,"x_max":310,"o":"m 139 754 q 40 779 79 754 q 0 861 0 804 q 52 966 0 918 q 181 1036 104 1014 q 310 942 310 1036 q 261 824 310 872 q 139 754 213 775 m 90 891 q 90 873 90 891 q 109 837 90 856 q 156 818 128 818 q 203 831 183 818 q 222 899 222 864 q 203 953 222 935 q 156 972 185 972 q 110 960 128 972 q 90 891 90 926 z "},"˜":{"ha":568,"x_min":19,"x_max":588,"o":"m 258 1000 q 433 933 360 933 q 554 982 507 933 l 588 958 q 393 793 499 836 q 280 826 358 793 q 167 860 201 860 q 54 811 100 860 l 19 835 q 123 931 56 885 q 258 1000 190 978 z "},"̇":{"ha":236,"x_min":0,"x_max":236,"o":"m 236 896 q 174 819 215 864 q 104 754 133 775 q 0 896 49 796 q 56 958 15 924 q 129 1010 96 993 q 236 896 183 975 z "},"–":{"ha":665,"x_min":10,"x_max":656,"o":"m 64 426 q 389 410 214 410 q 644 417 564 410 l 656 406 l 601 331 l 25 331 l 10 344 l 64 426 z "},"—":{"ha":985,"x_min":10,"x_max":975,"o":"m 64 426 q 595 410 321 410 q 964 418 869 410 l 975 407 l 921 331 l 25 331 l 10 344 l 64 426 z "},"‘":{"ha":314,"x_min":29,"x_max":313,"o":"m 29 582 q 122 782 46 682 q 292 946 197 882 l 313 922 q 189 713 211 815 q 276 582 244 657 q 219 517 261 553 q 142 463 176 481 q 29 582 82 500 z "},"’":{"ha":314,"x_min":1,"x_max":285,"o":"m 285 826 q 192 626 268 726 q 22 463 117 526 l 1 486 q 125 696 103 593 q 38 826 69 751 q 95 892 53 856 q 172 946 138 928 q 285 826 232 908 z "},"‚":{"ha":306,"x_min":-7,"x_max":276,"o":"m 276 129 q 186 -65 260 26 q 14 -207 113 -157 l -7 -183 q 117 -1 96 -96 q 29 129 61 54 q 87 194 44 158 q 164 249 129 231 q 276 129 224 211 z "},"“":{"ha":599,"x_min":29,"x_max":597,"o":"m 29 582 q 122 782 46 682 q 292 946 197 882 l 313 922 q 189 713 211 815 q 276 582 244 657 q 219 517 261 553 q 142 463 176 481 q 29 582 82 500 m 314 582 q 406 782 331 682 q 576 946 482 882 l 597 922 q 474 713 496 815 q 561 582 529 657 q 503 517 546 553 q 426 463 461 481 q 314 582 367 500 z "},"”":{"ha":599,"x_min":1,"x_max":569,"o":"m 569 826 q 477 626 553 726 q 307 463 401 526 l 286 486 q 410 696 388 593 q 322 826 354 751 q 380 892 338 856 q 457 946 422 928 q 569 826 517 908 m 285 826 q 192 626 268 726 q 22 463 117 526 l 1 486 q 125 696 103 593 q 38 826 69 751 q 95 892 53 856 q 172 946 138 928 q 285 826 232 908 z "},"„":{"ha":590,"x_min":-7,"x_max":561,"o":"m 276 129 q 186 -65 260 26 q 14 -207 113 -157 l -7 -183 q 117 -1 96 -96 q 29 129 61 54 q 87 194 44 158 q 164 249 129 231 q 276 129 224 211 m 561 129 q 471 -65 544 26 q 299 -207 397 -157 l 278 -183 q 401 -1 381 -96 q 314 129 346 54 q 372 194 329 158 q 449 249 414 231 q 561 129 508 211 z "},"•":{"ha":467,"x_min":29,"x_max":438,"o":"m 438 403 l 435 382 q 217 158 290 274 l 196 158 q 29 381 151 272 l 33 401 q 159 494 111 451 q 249 603 207 538 l 271 603 q 336 497 299 539 q 438 403 374 454 z "},"…":{"ha":917,"x_min":29,"x_max":888,"o":"m 236 182 q 267 141 267 144 q 276 129 268 138 l 272 122 q 224 60 272 115 q 142 -18 175 4 l 139 -21 q 85 36 104 8 q 49 92 68 56 q 37 114 43 101 q 29 129 31 126 q 64 172 42 153 q 78 186 69 181 l 104 208 q 113 215 106 210 q 124 224 121 221 l 136 232 q 164 249 149 242 q 181 236 164 247 q 226 193 199 225 l 236 182 m 888 129 q 824 49 867 96 q 750 -21 782 1 q 689 46 721 0 q 640 129 657 92 q 698 194 656 158 q 775 249 740 231 q 888 129 835 211 m 582 129 q 519 49 561 96 q 444 -21 476 1 q 383 46 415 0 q 335 129 351 92 q 392 194 350 158 q 469 249 435 231 q 582 129 529 211 z "},"‹":{"ha":432,"x_min":47,"x_max":422,"o":"m 228 396 l 360 121 l 321 97 q 47 371 185 281 l 50 406 q 390 667 226 496 l 422 644 l 228 396 z "},"›":{"ha":432,"x_min":10,"x_max":385,"o":"m 204 368 l 72 643 l 111 667 q 385 393 247 483 l 382 358 q 42 97 206 268 l 10 119 l 204 368 z "},"€":{"ha":576,"x_min":10,"x_max":578,"o":"m 418 747 q 519 726 483 726 q 569 732 554 726 l 578 711 q 506 472 515 642 l 481 472 q 465 542 474 497 l 446 571 q 405 612 433 590 q 357 635 376 633 q 319 444 336 563 q 463 451 433 449 l 467 446 q 443 401 450 425 l 314 397 l 310 351 q 453 358 424 356 l 457 353 q 433 307 440 328 l 310 304 q 388 122 313 129 q 494 299 450 182 l 528 292 q 340 -21 476 75 q 159 55 224 -18 q 94 249 94 128 q 97 296 94 279 l 96 296 l 14 289 l 10 294 q 54 339 44 325 l 101 340 l 104 340 q 118 389 111 368 q 24 382 64 388 l 19 388 q 64 433 60 428 l 135 436 l 136 436 q 253 613 178 531 q 418 747 328 694 z "},"ﬁ":{"ha":813,"x_min":35,"x_max":806,"o":"m 743 683 q 700 482 717 625 q 683 247 683 339 q 685 121 683 156 q 783 344 733 182 l 806 339 q 640 -21 756 58 q 514 20 551 -21 q 476 153 476 61 q 486 332 476 197 q 496 515 496 467 q 494 585 496 564 q 318 600 413 600 q 303 382 303 490 q 325 0 303 86 q 107 -281 131 -110 l 76 -278 q 74 -231 74 -260 q 89 -3 74 -203 q 107 349 107 219 q 96 611 107 479 l 39 615 l 35 642 q 97 672 63 660 q 200 850 119 776 q 407 988 281 924 l 453 972 q 669 931 575 931 l 678 910 q 611 827 646 878 q 564 739 576 776 l 542 738 l 521 761 q 431 835 492 794 q 328 878 369 875 q 251 760 251 826 q 317 683 251 694 q 407 681 336 681 q 733 701 621 681 l 743 683 z "},"ﬂ":{"ha":822,"x_min":35,"x_max":815,"o":"m 486 138 q 486 177 486 138 q 501 396 486 215 q 515 631 515 576 q 513 746 515 685 l 489 775 q 408 841 463 807 q 314 878 353 875 q 251 761 251 828 q 317 683 251 694 q 424 707 332 685 l 432 697 q 407 588 413 642 q 318 600 343 599 q 303 382 303 490 q 325 0 303 86 q 107 -281 131 -110 l 76 -278 q 74 -231 74 -260 q 89 -3 74 -203 q 107 349 107 219 q 96 611 107 479 l 39 615 l 35 642 q 97 672 63 660 q 191 844 117 769 q 379 988 265 918 l 411 972 q 565 928 500 928 q 782 976 669 928 l 793 958 q 715 614 735 867 q 694 164 694 361 q 694 121 694 142 q 793 344 743 182 l 815 339 q 650 -21 765 58 q 524 20 561 -21 q 486 138 486 61 z "}}}
